<?xml version="1.0" encoding="UTF-8" standalone="no"?>
<!-- Created with Inkscape (http://www.inkscape.org/) -->

<svg
   xmlns:dc="http://purl.org/dc/elements/1.1/"
   xmlns:cc="http://creativecommons.org/ns#"
   xmlns:rdf="http://www.w3.org/1999/02/22-rdf-syntax-ns#"
   xmlns:svg="http://www.w3.org/2000/svg"
   xmlns="http://www.w3.org/2000/svg"
   xmlns:sodipodi="http://sodipodi.sourceforge.net/DTD/sodipodi-0.dtd"
   xmlns:inkscape="http://www.inkscape.org/namespaces/inkscape"
   width="100mm"
   height="100mm"
   viewBox="0 0 100 100"
   version="1.1"
   id="svg6537"
   inkscape:version="0.92.4 5da689c313, 2019-01-14"
   sodipodi:docname="quadcopter.svg"
   inkscape:export-filename="/home/jake/code/NASA_LIFO/lifo-spaceapp/static/img/quadricopter.png"
   inkscape:export-xdpi="25.4"
   inkscape:export-ydpi="25.4">
  <defs
     id="defs6531">
    <filter
       inkscape:collect="always"
       style="color-interpolation-filters:sRGB"
       id="filter858"
       x="-0.024676673"
       width="1.0493532"
       y="-0.023359448"
       height="1.046719">
      <feGaussianBlur
         inkscape:collect="always"
         stdDeviation="0.24897166"
         id="feGaussianBlur860" />
    </filter>
    <filter
       inkscape:collect="always"
       style="color-interpolation-filters:sRGB"
       id="filter862"
       x="-0.024712376"
       width="1.0494248"
       y="-0.023327544"
       height="1.0466551">
      <feGaussianBlur
         inkscape:collect="always"
         stdDeviation="0.24865421"
         id="feGaussianBlur864" />
    </filter>
  </defs>
  <sodipodi:namedview
     id="base"
     pagecolor="#ffffff"
     bordercolor="#666666"
     borderopacity="1.0"
     inkscape:pageopacity="0.0"
     inkscape:pageshadow="2"
     inkscape:zoom="0.7"
     inkscape:cx="192.06487"
     inkscape:cy="245.34722"
     inkscape:document-units="mm"
     inkscape:current-layer="layer1"
     showgrid="false"
     inkscape:snap-global="false" />
  <metadata
     id="metadata6534">
    <rdf:RDF>
      <cc:Work
         rdf:about="">
        <dc:format>image/svg+xml</dc:format>
        <dc:type
           rdf:resource="http://purl.org/dc/dcmitype/StillImage" />
        <dc:title></dc:title>
      </cc:Work>
    </rdf:RDF>
  </metadata>
  <g
     inkscape:label="Layer 1"
     inkscape:groupmode="layer"
     id="layer1"
     transform="translate(0,-197)">
    <g
       transform="rotate(115.20521,-68.542427,91.218692)"
       id="g838"
       inkscape:transform-center-x="-2.6118124"
       inkscape:transform-center-y="0.11281895">
      <path
         inkscape:transform-center-y="-1.0374791"
         inkscape:transform-center-x="-2.4882511"
         style="fill:#cbcbcb;fill-opacity:0.34751772;stroke-width:0.12233882;filter:url(#filter862)"
         d="m 45.838943,41.297535 c -0.428308,0.172818 -0.848246,0.36579 -1.258397,0.578201 0.08372,0.20129 0.199926,0.537858 0.31651,0.935424 0.609648,2.078857 2.228512,5.953004 3.469665,8.302826 0.238724,0.451973 0.431628,0.843665 0.428381,0.870672 -0.0032,0.02697 -0.225658,0.303622 -0.494169,0.614748 -0.502509,0.582276 -0.859013,1.414879 -0.957931,2.237603 -0.0719,0.598025 0.159644,1.866294 0.431848,2.365608 l 0.209987,0.385358 -0.497687,0.546332 c -1.049851,1.153093 -3.348415,4.225334 -4.391498,5.869747 -0.599138,0.944521 -1.153066,1.831312 -1.23114,1.970417 -0.01672,0.02959 -0.03187,0.05496 -0.04708,0.07612 0.34017,0.292403 0.693576,0.569097 1.059106,0.829152 l 0.267807,-0.260794 c 1.779695,-1.734425 3.650977,-3.880474 5.268658,-6.041961 0.705672,-0.942888 1.157189,-1.445118 1.25962,-1.401426 0.08791,0.03749 0.621212,0.147903 1.185543,0.245426 0.959622,0.16596 1.076031,0.159046 1.799485,-0.107033 1.454779,-0.60941 1.871902,-1.085369 2.419423,-1.845309 l 0.482892,-0.771031 3.461912,0.413111 c 3.153412,0.376221 5.706084,0.558487 6.646824,0.47547 l 0.09003,-0.0079 c 0.06341,-0.309959 0.116841,-0.621879 0.159993,-0.935295 0.0199,-0.18644 0.03425,-0.37347 0.04734,-0.560472 l -0.07153,-0.01122 c -0.216796,-0.03372 -0.770128,-0.162625 -1.22995,-0.283855 -0.459836,-0.121239 -2.6711,-0.449364 -4.913977,-0.728927 L 55.672584,54.55044 55.51923,54.001939 c -0.23879,-0.854174 -1.063793,-1.909443 -1.873332,-2.396357 -0.721273,-0.433809 -1.757669,-0.666239 -2.59009,-0.580955 -0.384207,0.03935 -0.387148,0.03467 -1.017808,-1.515518 -1.09309,-2.686844 -2.730899,-5.943641 -3.808003,-7.573135 -0.172518,-0.260991 -0.316255,-0.497669 -0.39111,-0.637853 z"
         id="path834"
         inkscape:connector-curvature="0"
         sodipodi:nodetypes="ccccscsccccccccccsccccccccccccccscccc" />
      <path
         sodipodi:nodetypes="ccccscsccccccccccsccccccccccccccscccc"
         inkscape:connector-curvature="0"
         id="path7176"
         d="m 44.227978,42.060671 c -0.404615,0.222711 -0.798515,0.464432 -1.180377,0.724285 0.107148,0.189857 0.262702,0.510146 0.425911,0.890952 0.853447,1.991217 2.923202,5.644414 4.435985,7.829274 0.29097,0.420245 0.529252,0.786108 0.529252,0.81331 0,0.02716 -0.1878,0.328388 -0.417251,0.669342 -0.429408,0.638099 -0.683973,1.507305 -0.683973,2.335954 0,0.602332 0.381287,1.833892 0.711149,2.297142 l 0.254486,0.357536 -0.428911,0.601836 c -0.904696,1.270171 -2.820083,4.594829 -3.65941,6.352 -0.482104,1.009287 -0.926212,1.955861 -0.987123,2.103292 -0.01307,0.03137 -0.02508,0.05837 -0.03766,0.0812 0.372642,0.249705 0.756551,0.482233 1.150511,0.696795 l 0.23476,-0.290898 c 1.559927,-1.93447 3.161649,-4.288554 4.50974,-6.627692 0.588071,-1.020384 0.976407,-1.572921 1.083322,-1.541769 0.09176,0.02673 0.634425,0.07269 1.206363,0.10215 0.972571,0.05022 1.087322,0.02946 1.773841,-0.321077 1.371629,-0.778713 1.728953,-1.301062 2.181843,-2.120927 l 0.387399,-0.823162 3.486472,-0.0031 c 3.175774,-0.0029 5.731951,-0.126657 6.656054,-0.321379 l 0.08844,-0.01862 c 0.02596,-0.315313 0.04177,-0.63138 0.0472,-0.947706 -0.0025,-0.187482 -0.01058,-0.374888 -0.0199,-0.562116 l -0.07236,-0.0026 c -0.219271,-0.0076 -0.784034,-0.06953 -1.25504,-0.135003 -0.47102,-0.06548 -2.705642,-0.127294 -4.965853,-0.13712 l -4.109516,-0.01765 -0.217734,-0.526273 c -0.339047,-0.819561 -1.284121,-1.768802 -2.145996,-2.155597 -0.7679,-0.344607 -1.824631,-0.451658 -2.640919,-0.267615 -0.376763,0.08493 -0.380241,0.08064 -1.191442,-1.383183 -1.406009,-2.537147 -3.420879,-5.575147 -4.684799,-7.064413 -0.202439,-0.23853 -0.373401,-0.456358 -0.464455,-0.586604 z"
         style="fill:#a7a7a7;fill-opacity:1;stroke-width:0.12233882" />
      <path
         style="fill:#000000;fill-opacity:0.18794328;stroke-width:0.12233882;filter:url(#filter858)"
         d="m 42.836837,42.930194 c -0.377269,0.266423 -0.741771,0.550543 -1.092289,0.851341 0.127643,0.176731 0.317928,0.477685 0.522566,0.837926 1.070079,1.88368 3.534137,5.283408 5.281027,7.286031 0.335999,0.385194 0.613577,0.722217 0.616609,0.749249 0.003,0.02699 -0.150026,0.347275 -0.340043,0.71168 -0.355607,0.681986 -0.5117,1.574151 -0.419335,2.397636 0.06714,0.598578 0.583325,1.779964 0.962767,2.203559 l 0.292753,0.326942 -0.359155,0.645894 c -0.75748,1.363097 -2.29035,4.880535 -2.928585,6.720311 -0.3666,1.056735 -0.702431,2.046913 -0.746529,2.200214 -0.0095,0.03263 -0.01842,0.0608 -0.02838,0.08489 0.398154,0.206613 0.805589,0.394899 1.22101,0.564212 l 0.200872,-0.315253 c 1.334582,-2.096291 2.663926,-4.614241 3.742886,-7.089066 0.47067,-1.079575 0.794998,-1.671954 0.904719,-1.652913 0.09417,0.01633 0.638574,0.0015 1.210231,-0.03295 0.972108,-0.0585 1.08383,-0.09192 1.726999,-0.516797 1.276283,-0.926748 1.573157,-1.485671 1.931839,-2.350908 l 0.293231,-0.861213 3.464401,-0.391698 c 3.15566,-0.356868 5.682114,-0.764777 6.578754,-1.06129 l 0.08581,-0.02836 c -0.0093,-0.316241 -0.02887,-0.632101 -0.05873,-0.947061 -0.02338,-0.186035 -0.0523,-0.371373 -0.08243,-0.556395 l -0.0722,0.0055 c -0.218752,0.01689 -0.786899,0.01829 -1.262268,0.0057 -0.475383,-0.01257 -2.70297,0.175082 -4.950191,0.41725 l -4.085875,0.440525 -0.275038,-0.498724 c -0.428286,-0.776662 -1.473277,-1.614646 -2.372895,-1.902962 -0.801527,-0.256866 -1.863605,-0.245462 -2.654292,0.02842 -0.364948,0.126397 -0.368883,0.122521 -1.338193,-1.24176 -1.680049,-2.364617 -4.020992,-5.159099 -5.443036,-6.498203 -0.227765,-0.214478 -0.421941,-0.411893 -0.526946,-0.531178 z"
         id="path840"
         inkscape:connector-curvature="0"
         sodipodi:nodetypes="ccccscsccccccccccsccccccccccccccscccc"
         inkscape:transform-center-x="-2.5427681"
         inkscape:transform-center-y="0.7830065" />
    </g>
    <g
       id="g1041"
       inkscape:transform-center-x="1.2002087"
       inkscape:transform-center-y="1.8624797"
       transform="rotate(143.72749,111.57573,224.09645)"
       inkscape:export-xdpi="25.4"
       inkscape:export-ydpi="25.4">
      <path
         transform="rotate(54.692265,-87.370628,165.13589)"
         sodipodi:nodetypes="ccccscsccccccccccsccccccccccccccscccc"
         inkscape:connector-curvature="0"
         id="path866"
         d="m 45.838943,41.297535 c -0.428308,0.172818 -0.848246,0.36579 -1.258397,0.578201 0.08372,0.20129 0.199926,0.537858 0.31651,0.935424 0.609648,2.078857 2.228512,5.953004 3.469665,8.302826 0.238724,0.451973 0.431628,0.843665 0.428381,0.870672 -0.0032,0.02697 -0.225658,0.303622 -0.494169,0.614748 -0.502509,0.582276 -0.859013,1.414879 -0.957931,2.237603 -0.0719,0.598025 0.159644,1.866294 0.431848,2.365608 l 0.209987,0.385358 -0.497687,0.546332 c -1.049851,1.153093 -3.348415,4.225334 -4.391498,5.869747 -0.599138,0.944521 -1.153066,1.831312 -1.23114,1.970417 -0.01672,0.02959 -0.03187,0.05496 -0.04708,0.07612 0.34017,0.292403 0.693576,0.569097 1.059106,0.829152 l 0.267807,-0.260794 c 1.779695,-1.734425 3.650977,-3.880474 5.268658,-6.041961 0.705672,-0.942888 1.157189,-1.445118 1.25962,-1.401426 0.08791,0.03749 0.621212,0.147903 1.185543,0.245426 0.959622,0.16596 1.076031,0.159046 1.799485,-0.107033 1.454779,-0.60941 1.871902,-1.085369 2.419423,-1.845309 l 0.482892,-0.771031 3.461912,0.413111 c 3.153412,0.376221 5.706084,0.558487 6.646824,0.47547 l 0.09003,-0.0079 c 0.06341,-0.309959 0.116841,-0.621879 0.159993,-0.935295 0.0199,-0.18644 0.03425,-0.37347 0.04734,-0.560472 l -0.07153,-0.01122 c -0.216796,-0.03372 -0.770128,-0.162625 -1.22995,-0.283855 -0.459836,-0.121239 -2.6711,-0.449364 -4.913977,-0.728927 L 55.672584,54.55044 55.51923,54.001939 c -0.23879,-0.854174 -1.063793,-1.909443 -1.873332,-2.396357 -0.721273,-0.433809 -1.757669,-0.666239 -2.59009,-0.580955 -0.384207,0.03935 -0.387148,0.03467 -1.017808,-1.515518 -1.09309,-2.686844 -2.730899,-5.943641 -3.808003,-7.573135 -0.172518,-0.260991 -0.316255,-0.497669 -0.39111,-0.637853 z"
         style="fill:#cbcbcb;fill-opacity:0.34751772;stroke-width:0.12233882;filter:url(#filter862)"
         inkscape:transform-center-x="-2.4882511"
         inkscape:transform-center-y="-1.0374791" />
      <path
         style="fill:#a7a7a7;fill-opacity:1;stroke-width:0.12233882"
         d="m 89.125838,201.39468 c -0.4156,-0.20147 -0.84052,-0.38321 -1.27328,-0.54465 -0.093,0.19717 -0.26448,0.50923 -0.48091,0.86251 -1.13169,1.84732 -2.91666,5.6478 -3.8253,8.1451 -0.17477,0.48034 -0.33562,0.88624 -0.35782,0.90197 -0.0222,0.0157 -0.37652,0.0365 -0.78738,0.0464 -0.76891,0.0184 -1.62536,0.31301 -2.30159,0.79194 -0.49154,0.34813 -1.27619,1.37108 -1.46358,1.90802 l -0.14469,0.41432 -0.73903,-0.002 c -1.55942,-0.004 -5.37957,0.35431 -7.29863,0.68496 -1.10228,0.18991 -2.13142,0.37458 -2.28694,0.41008 -0.0332,0.007 -0.0621,0.0133 -0.088,0.0162 0.0116,0.44842 0.0437,0.89611 0.0963,1.34161 l 0.37307,0.0234 c 2.48023,0.15494 5.32705,0.10145 8.01508,-0.15037 1.17258,-0.10985 1.84792,-0.11229 1.8843,-0.007 0.0312,0.0903 0.30735,0.55974 0.61387,1.0435 0.52114,0.8227 0.6044,0.90435 1.28725,1.26199 1.42823,0.66926 2.06102,0.65896 2.99183,0.55469 l 0.89566,-0.15963 2.01759,2.84338 c 1.83787,2.58995 3.41625,4.60441 4.10925,5.24599 l 0.0663,0.0614 c 0.27232,-0.16105 0.53939,-0.33083 0.80067,-0.50922 0.15155,-0.1104 0.29982,-0.22531 0.44722,-0.34113 l -0.0397,-0.0606 c -0.12053,-0.18333 -0.39641,-0.68 -0.6152,-1.10221 -0.2188,-0.42223 -1.4599,-2.28154 -2.75821,-4.13169 l -2.36076,-3.36381 0.30362,-0.48185 c 0.47286,-0.75036 0.70127,-2.07023 0.51878,-2.99713 -0.1626,-0.82582 -0.686,-1.75005 -1.30797,-2.30982 -0.28707,-0.25837 -0.28558,-0.26369 0.44014,-1.77172 1.25784,-2.61378 2.57249,-6.0139 3.05732,-7.90608 0.0777,-0.30306 0.1566,-0.56847 0.21026,-0.71806 z"
         id="path868"
         inkscape:connector-curvature="0"
         sodipodi:nodetypes="ccccscsccccccccccsccccccccccccccscccc" />
      <path
         transform="rotate(54.692265,-87.370628,165.13589)"
         inkscape:transform-center-y="-1.8896888"
         inkscape:transform-center-x="1.7335443"
         sodipodi:nodetypes="ccccscsccccccccccsccccccccccccccscccc"
         inkscape:connector-curvature="0"
         id="path870"
         d="m 42.836837,42.930194 c -0.377269,0.266423 -0.741771,0.550543 -1.092289,0.851341 0.127643,0.176731 0.317928,0.477685 0.522566,0.837926 1.070079,1.88368 3.534137,5.283408 5.281027,7.286031 0.335999,0.385194 0.613577,0.722217 0.616609,0.749249 0.003,0.02699 -0.150026,0.347275 -0.340043,0.71168 -0.355607,0.681986 -0.5117,1.574151 -0.419335,2.397636 0.06714,0.598578 0.583325,1.779964 0.962767,2.203559 l 0.292753,0.326942 -0.359155,0.645894 c -0.75748,1.363097 -2.29035,4.880535 -2.928585,6.720311 -0.3666,1.056735 -0.702431,2.046913 -0.746529,2.200214 -0.0095,0.03263 -0.01842,0.0608 -0.02838,0.08489 0.398154,0.206613 0.805589,0.394899 1.22101,0.564212 l 0.200872,-0.315253 c 1.334582,-2.096291 2.663926,-4.614241 3.742886,-7.089066 0.47067,-1.079575 0.794998,-1.671954 0.904719,-1.652913 0.09417,0.01633 0.638574,0.0015 1.210231,-0.03295 0.972108,-0.0585 1.08383,-0.09192 1.726999,-0.516797 1.276283,-0.926748 1.573157,-1.485671 1.931839,-2.350908 l 0.293231,-0.861213 3.464401,-0.391698 c 3.15566,-0.356868 5.682114,-0.764777 6.578754,-1.06129 l 0.08581,-0.02836 c -0.0093,-0.316241 -0.02887,-0.632101 -0.05873,-0.947061 -0.02338,-0.186035 -0.0523,-0.371373 -0.08243,-0.556395 l -0.0722,0.0055 c -0.218752,0.01689 -0.786899,0.01829 -1.262268,0.0057 -0.475383,-0.01257 -2.70297,0.175082 -4.950191,0.41725 l -4.085875,0.440525 -0.275038,-0.498724 c -0.428286,-0.776662 -1.473277,-1.614646 -2.372895,-1.902962 -0.801527,-0.256866 -1.863605,-0.245462 -2.654292,0.02842 -0.364948,0.126397 -0.368883,0.122521 -1.338193,-1.24176 -1.680049,-2.364617 -4.020992,-5.159099 -5.443036,-6.498203 -0.227765,-0.214478 -0.421941,-0.411893 -0.526946,-0.531178 z"
         style="fill:#000000;fill-opacity:0.18794328;stroke-width:0.12233882;filter:url(#filter858)" />
    </g>
    <g
       inkscape:transform-center-y="-1.028686"
       inkscape:transform-center-x="-2.0848204"
       id="g880"
       transform="rotate(128.77844,-58.223759,140.005)">
      <path
         sodipodi:nodetypes="ccccscsccccccccccsccccccccccccccscccc"
         inkscape:connector-curvature="0"
         id="path874"
         d="m 45.838943,41.297535 c -0.428308,0.172818 -0.848246,0.36579 -1.258397,0.578201 0.08372,0.20129 0.199926,0.537858 0.31651,0.935424 0.609648,2.078857 2.228512,5.953004 3.469665,8.302826 0.238724,0.451973 0.431628,0.843665 0.428381,0.870672 -0.0032,0.02697 -0.225658,0.303622 -0.494169,0.614748 -0.502509,0.582276 -0.859013,1.414879 -0.957931,2.237603 -0.0719,0.598025 0.159644,1.866294 0.431848,2.365608 l 0.209987,0.385358 -0.497687,0.546332 c -1.049851,1.153093 -3.348415,4.225334 -4.391498,5.869747 -0.599138,0.944521 -1.153066,1.831312 -1.23114,1.970417 -0.01672,0.02959 -0.03187,0.05496 -0.04708,0.07612 0.34017,0.292403 0.693576,0.569097 1.059106,0.829152 l 0.267807,-0.260794 c 1.779695,-1.734425 3.650977,-3.880474 5.268658,-6.041961 0.705672,-0.942888 1.157189,-1.445118 1.25962,-1.401426 0.08791,0.03749 0.621212,0.147903 1.185543,0.245426 0.959622,0.16596 1.076031,0.159046 1.799485,-0.107033 1.454779,-0.60941 1.871902,-1.085369 2.419423,-1.845309 l 0.482892,-0.771031 3.461912,0.413111 c 3.153412,0.376221 5.706084,0.558487 6.646824,0.47547 l 0.09003,-0.0079 c 0.06341,-0.309959 0.116841,-0.621879 0.159993,-0.935295 0.0199,-0.18644 0.03425,-0.37347 0.04734,-0.560472 l -0.07153,-0.01122 c -0.216796,-0.03372 -0.770128,-0.162625 -1.22995,-0.283855 -0.459836,-0.121239 -2.6711,-0.449364 -4.913977,-0.728927 L 55.672584,54.55044 55.51923,54.001939 c -0.23879,-0.854174 -1.063793,-1.909443 -1.873332,-2.396357 -0.721273,-0.433809 -1.757669,-0.666239 -2.59009,-0.580955 -0.384207,0.03935 -0.387148,0.03467 -1.017808,-1.515518 -1.09309,-2.686844 -2.730899,-5.943641 -3.808003,-7.573135 -0.172518,-0.260991 -0.316255,-0.497669 -0.39111,-0.637853 z"
         style="fill:#cbcbcb;fill-opacity:0.34751772;stroke-width:0.12233882;filter:url(#filter862)"
         inkscape:transform-center-x="-2.4882511"
         inkscape:transform-center-y="-1.0374791" />
      <path
         style="fill:#a7a7a7;fill-opacity:1;stroke-width:0.12233882"
         d="m 44.227978,42.060671 c -0.404615,0.222711 -0.798515,0.464432 -1.180377,0.724285 0.107148,0.189857 0.262702,0.510146 0.425911,0.890952 0.853447,1.991217 2.923202,5.644414 4.435985,7.829274 0.29097,0.420245 0.529252,0.786108 0.529252,0.81331 0,0.02716 -0.1878,0.328388 -0.417251,0.669342 -0.429408,0.638099 -0.683973,1.507305 -0.683973,2.335954 0,0.602332 0.381287,1.833892 0.711149,2.297142 l 0.254486,0.357536 -0.428911,0.601836 c -0.904696,1.270171 -2.820083,4.594829 -3.65941,6.352 -0.482104,1.009287 -0.926212,1.955861 -0.987123,2.103292 -0.01307,0.03137 -0.02508,0.05837 -0.03766,0.0812 0.372642,0.249705 0.756551,0.482233 1.150511,0.696795 l 0.23476,-0.290898 c 1.559927,-1.93447 3.161649,-4.288554 4.50974,-6.627692 0.588071,-1.020384 0.976407,-1.572921 1.083322,-1.541769 0.09176,0.02673 0.634425,0.07269 1.206363,0.10215 0.972571,0.05022 1.087322,0.02946 1.773841,-0.321077 1.371629,-0.778713 1.728953,-1.301062 2.181843,-2.120927 l 0.387399,-0.823162 3.486472,-0.0031 c 3.175774,-0.0029 5.731951,-0.126657 6.656054,-0.321379 l 0.08844,-0.01862 c 0.02596,-0.315313 0.04177,-0.63138 0.0472,-0.947706 -0.0025,-0.187482 -0.01058,-0.374888 -0.0199,-0.562116 l -0.07236,-0.0026 c -0.219271,-0.0076 -0.784034,-0.06953 -1.25504,-0.135003 -0.47102,-0.06548 -2.705642,-0.127294 -4.965853,-0.13712 l -4.109516,-0.01765 -0.217734,-0.526273 c -0.339047,-0.819561 -1.284121,-1.768802 -2.145996,-2.155597 -0.7679,-0.344607 -1.824631,-0.451658 -2.640919,-0.267615 -0.376763,0.08493 -0.380241,0.08064 -1.191442,-1.383183 -1.406009,-2.537147 -3.420879,-5.575147 -4.684799,-7.064413 -0.202439,-0.23853 -0.373401,-0.456358 -0.464455,-0.586604 z"
         id="path876"
         inkscape:connector-curvature="0"
         sodipodi:nodetypes="ccccscsccccccccccsccccccccccccccscccc" />
      <path
         inkscape:transform-center-y="0.7830065"
         inkscape:transform-center-x="-2.5427681"
         sodipodi:nodetypes="ccccscsccccccccccsccccccccccccccscccc"
         inkscape:connector-curvature="0"
         id="path878"
         d="m 42.836837,42.930194 c -0.377269,0.266423 -0.741771,0.550543 -1.092289,0.851341 0.127643,0.176731 0.317928,0.477685 0.522566,0.837926 1.070079,1.88368 3.534137,5.283408 5.281027,7.286031 0.335999,0.385194 0.613577,0.722217 0.616609,0.749249 0.003,0.02699 -0.150026,0.347275 -0.340043,0.71168 -0.355607,0.681986 -0.5117,1.574151 -0.419335,2.397636 0.06714,0.598578 0.583325,1.779964 0.962767,2.203559 l 0.292753,0.326942 -0.359155,0.645894 c -0.75748,1.363097 -2.29035,4.880535 -2.928585,6.720311 -0.3666,1.056735 -0.702431,2.046913 -0.746529,2.200214 -0.0095,0.03263 -0.01842,0.0608 -0.02838,0.08489 0.398154,0.206613 0.805589,0.394899 1.22101,0.564212 l 0.200872,-0.315253 c 1.334582,-2.096291 2.663926,-4.614241 3.742886,-7.089066 0.47067,-1.079575 0.794998,-1.671954 0.904719,-1.652913 0.09417,0.01633 0.638574,0.0015 1.210231,-0.03295 0.972108,-0.0585 1.08383,-0.09192 1.726999,-0.516797 1.276283,-0.926748 1.573157,-1.485671 1.931839,-2.350908 l 0.293231,-0.861213 3.464401,-0.391698 c 3.15566,-0.356868 5.682114,-0.764777 6.578754,-1.06129 l 0.08581,-0.02836 c -0.0093,-0.316241 -0.02887,-0.632101 -0.05873,-0.947061 -0.02338,-0.186035 -0.0523,-0.371373 -0.08243,-0.556395 l -0.0722,0.0055 c -0.218752,0.01689 -0.786899,0.01829 -1.262268,0.0057 -0.475383,-0.01257 -2.70297,0.175082 -4.950191,0.41725 l -4.085875,0.440525 -0.275038,-0.498724 c -0.428286,-0.776662 -1.473277,-1.614646 -2.372895,-1.902962 -0.801527,-0.256866 -1.863605,-0.245462 -2.654292,0.02842 -0.364948,0.126397 -0.368883,0.122521 -1.338193,-1.24176 -1.680049,-2.364617 -4.020992,-5.159099 -5.443036,-6.498203 -0.227765,-0.214478 -0.421941,-0.411893 -0.526946,-0.531178 z"
         style="fill:#000000;fill-opacity:0.18794328;stroke-width:0.12233882;filter:url(#filter858)" />
    </g>
    <g
       transform="rotate(167.35547,94.213799,173.04626)"
       id="g888"
       inkscape:transform-center-x="1.0967659"
       inkscape:transform-center-y="-1.1434359">
      <path
         inkscape:transform-center-y="-1.0374791"
         inkscape:transform-center-x="-2.4882511"
         style="fill:#cbcbcb;fill-opacity:0.34751772;stroke-width:0.12233882;filter:url(#filter862)"
         d="m 45.838943,41.297535 c -0.428308,0.172818 -0.848246,0.36579 -1.258397,0.578201 0.08372,0.20129 0.199926,0.537858 0.31651,0.935424 0.609648,2.078857 2.228512,5.953004 3.469665,8.302826 0.238724,0.451973 0.431628,0.843665 0.428381,0.870672 -0.0032,0.02697 -0.225658,0.303622 -0.494169,0.614748 -0.502509,0.582276 -0.859013,1.414879 -0.957931,2.237603 -0.0719,0.598025 0.159644,1.866294 0.431848,2.365608 l 0.209987,0.385358 -0.497687,0.546332 c -1.049851,1.153093 -3.348415,4.225334 -4.391498,5.869747 -0.599138,0.944521 -1.153066,1.831312 -1.23114,1.970417 -0.01672,0.02959 -0.03187,0.05496 -0.04708,0.07612 0.34017,0.292403 0.693576,0.569097 1.059106,0.829152 l 0.267807,-0.260794 c 1.779695,-1.734425 3.650977,-3.880474 5.268658,-6.041961 0.705672,-0.942888 1.157189,-1.445118 1.25962,-1.401426 0.08791,0.03749 0.621212,0.147903 1.185543,0.245426 0.959622,0.16596 1.076031,0.159046 1.799485,-0.107033 1.454779,-0.60941 1.871902,-1.085369 2.419423,-1.845309 l 0.482892,-0.771031 3.461912,0.413111 c 3.153412,0.376221 5.706084,0.558487 6.646824,0.47547 l 0.09003,-0.0079 c 0.06341,-0.309959 0.116841,-0.621879 0.159993,-0.935295 0.0199,-0.18644 0.03425,-0.37347 0.04734,-0.560472 l -0.07153,-0.01122 c -0.216796,-0.03372 -0.770128,-0.162625 -1.22995,-0.283855 -0.459836,-0.121239 -2.6711,-0.449364 -4.913977,-0.728927 L 55.672584,54.55044 55.51923,54.001939 c -0.23879,-0.854174 -1.063793,-1.909443 -1.873332,-2.396357 -0.721273,-0.433809 -1.757669,-0.666239 -2.59009,-0.580955 -0.384207,0.03935 -0.387148,0.03467 -1.017808,-1.515518 -1.09309,-2.686844 -2.730899,-5.943641 -3.808003,-7.573135 -0.172518,-0.260991 -0.316255,-0.497669 -0.39111,-0.637853 z"
         id="path882"
         inkscape:connector-curvature="0"
         sodipodi:nodetypes="ccccscsccccccccccsccccccccccccccscccc" />
      <path
         sodipodi:nodetypes="ccccscsccccccccccsccccccccccccccscccc"
         inkscape:connector-curvature="0"
         id="path884"
         d="m 44.227978,42.060671 c -0.404615,0.222711 -0.798515,0.464432 -1.180377,0.724285 0.107148,0.189857 0.262702,0.510146 0.425911,0.890952 0.853447,1.991217 2.923202,5.644414 4.435985,7.829274 0.29097,0.420245 0.529252,0.786108 0.529252,0.81331 0,0.02716 -0.1878,0.328388 -0.417251,0.669342 -0.429408,0.638099 -0.683973,1.507305 -0.683973,2.335954 0,0.602332 0.381287,1.833892 0.711149,2.297142 l 0.254486,0.357536 -0.428911,0.601836 c -0.904696,1.270171 -2.820083,4.594829 -3.65941,6.352 -0.482104,1.009287 -0.926212,1.955861 -0.987123,2.103292 -0.01307,0.03137 -0.02508,0.05837 -0.03766,0.0812 0.372642,0.249705 0.756551,0.482233 1.150511,0.696795 l 0.23476,-0.290898 c 1.559927,-1.93447 3.161649,-4.288554 4.50974,-6.627692 0.588071,-1.020384 0.976407,-1.572921 1.083322,-1.541769 0.09176,0.02673 0.634425,0.07269 1.206363,0.10215 0.972571,0.05022 1.087322,0.02946 1.773841,-0.321077 1.371629,-0.778713 1.728953,-1.301062 2.181843,-2.120927 l 0.387399,-0.823162 3.486472,-0.0031 c 3.175774,-0.0029 5.731951,-0.126657 6.656054,-0.321379 l 0.08844,-0.01862 c 0.02596,-0.315313 0.04177,-0.63138 0.0472,-0.947706 -0.0025,-0.187482 -0.01058,-0.374888 -0.0199,-0.562116 l -0.07236,-0.0026 c -0.219271,-0.0076 -0.784034,-0.06953 -1.25504,-0.135003 -0.47102,-0.06548 -2.705642,-0.127294 -4.965853,-0.13712 l -4.109516,-0.01765 -0.217734,-0.526273 c -0.339047,-0.819561 -1.284121,-1.768802 -2.145996,-2.155597 -0.7679,-0.344607 -1.824631,-0.451658 -2.640919,-0.267615 -0.376763,0.08493 -0.380241,0.08064 -1.191442,-1.383183 -1.406009,-2.537147 -3.420879,-5.575147 -4.684799,-7.064413 -0.202439,-0.23853 -0.373401,-0.456358 -0.464455,-0.586604 z"
         style="fill:#a7a7a7;fill-opacity:1;stroke-width:0.12233882" />
      <path
         style="fill:#000000;fill-opacity:0.18794328;stroke-width:0.12233882;filter:url(#filter858)"
         d="m 42.836837,42.930194 c -0.377269,0.266423 -0.741771,0.550543 -1.092289,0.851341 0.127643,0.176731 0.317928,0.477685 0.522566,0.837926 1.070079,1.88368 3.534137,5.283408 5.281027,7.286031 0.335999,0.385194 0.613577,0.722217 0.616609,0.749249 0.003,0.02699 -0.150026,0.347275 -0.340043,0.71168 -0.355607,0.681986 -0.5117,1.574151 -0.419335,2.397636 0.06714,0.598578 0.583325,1.779964 0.962767,2.203559 l 0.292753,0.326942 -0.359155,0.645894 c -0.75748,1.363097 -2.29035,4.880535 -2.928585,6.720311 -0.3666,1.056735 -0.702431,2.046913 -0.746529,2.200214 -0.0095,0.03263 -0.01842,0.0608 -0.02838,0.08489 0.398154,0.206613 0.805589,0.394899 1.22101,0.564212 l 0.200872,-0.315253 c 1.334582,-2.096291 2.663926,-4.614241 3.742886,-7.089066 0.47067,-1.079575 0.794998,-1.671954 0.904719,-1.652913 0.09417,0.01633 0.638574,0.0015 1.210231,-0.03295 0.972108,-0.0585 1.08383,-0.09192 1.726999,-0.516797 1.276283,-0.926748 1.573157,-1.485671 1.931839,-2.350908 l 0.293231,-0.861213 3.464401,-0.391698 c 3.15566,-0.356868 5.682114,-0.764777 6.578754,-1.06129 l 0.08581,-0.02836 c -0.0093,-0.316241 -0.02887,-0.632101 -0.05873,-0.947061 -0.02338,-0.186035 -0.0523,-0.371373 -0.08243,-0.556395 l -0.0722,0.0055 c -0.218752,0.01689 -0.786899,0.01829 -1.262268,0.0057 -0.475383,-0.01257 -2.70297,0.175082 -4.950191,0.41725 l -4.085875,0.440525 -0.275038,-0.498724 c -0.428286,-0.776662 -1.473277,-1.614646 -2.372895,-1.902962 -0.801527,-0.256866 -1.863605,-0.245462 -2.654292,0.02842 -0.364948,0.126397 -0.368883,0.122521 -1.338193,-1.24176 -1.680049,-2.364617 -4.020992,-5.159099 -5.443036,-6.498203 -0.227765,-0.214478 -0.421941,-0.411893 -0.526946,-0.531178 z"
         id="path886"
         inkscape:connector-curvature="0"
         sodipodi:nodetypes="ccccscsccccccccccsccccccccccccccscccc"
         inkscape:transform-center-x="-2.5427681"
         inkscape:transform-center-y="0.7830065" />
    </g>
    <path
       style="fill:#313131;fill-opacity:1;stroke-width:0.09740685"
       d="m 17.477529,281.86056 c -0.984948,-0.35249 -1.689611,-1.13722 -1.95643,-2.17866 -0.341538,-1.3332 0.01945,-2.11888 1.923698,-4.18719 7.721974,-8.38706 12.052376,-14.03277 14.599505,-19.03391 1.709799,-3.35707 2.473318,-5.97613 2.598535,-8.91363 0.201017,-4.71576 -1.460328,-9.16968 -5.613188,-15.04846 -1.959008,-2.77317 -5.495182,-7.0714 -8.576171,-10.42439 -0.296307,-0.32246 -0.916101,-1.00187 -1.377325,-1.5098 -0.461215,-0.50794 -1.315963,-1.44003 -1.89943,-2.07133 -1.190447,-1.28804 -1.547944,-1.83743 -1.697305,-2.60837 -0.475572,-2.45465 2.119123,-4.39459 4.391086,-3.28302 0.343216,0.16792 1.079481,0.75994 2.043688,1.64331 2.875061,2.634 3.366787,3.07423 5.107056,4.57217 9.321647,8.02363 15.396104,11.63116 21.092781,12.52666 1.359579,0.21372 3.903552,0.21065 5.211267,-0.006 3.691512,-0.61242 7.344968,-2.33248 11.981044,-5.64071 2.333958,-1.66546 7.170718,-5.62931 9.454628,-7.74833 3.22264,-2.98995 5.59158,-5.07101 6.05427,-5.31847 0.6338,-0.33899 1.61546,-0.44222 2.32259,-0.24424 0.92378,0.25863 1.74705,1.08949 2.03266,2.05128 0.18636,0.62743 0.19143,1.05792 0.0202,1.6972 -0.21132,0.78835 -0.38296,1.01497 -2.54584,3.36074 -8.68558,9.41998 -13.6071,16.35877 -15.499639,21.85266 -0.8039,2.33369 -1.057067,3.82929 -1.049602,6.20031 0.0097,3.06855 0.603158,5.40222 2.195091,8.63127 1.87854,3.81027 4.42594,7.35015 9.48376,13.17849 2.34888,2.70674 4.18476,4.75052 6.1012,6.79221 1.11084,1.18345 1.39627,1.75734 1.39792,2.8113 9.2e-4,0.65693 -0.0416,0.86651 -0.26953,1.33104 -0.29843,0.60766 -0.81268,1.12499 -1.45379,1.46246 -0.34477,0.18147 -0.57275,0.2202 -1.29506,0.22002 -1.21609,0 -1.52143,-0.1781 -3.63827,-2.11858 -2.92169,-2.67842 -3.5783,-3.2685 -5.80071,-5.21287 -8.457991,-7.40005 -13.880473,-10.67226 -19.344761,-11.67356 -1.259178,-0.23077 -4.237936,-0.22955 -5.587995,0.002 -4.077381,0.70011 -8.521548,2.89774 -13.893378,6.87039 -0.986038,0.72915 -4.096348,3.16704 -4.626826,3.62646 -0.107147,0.0928 -1.224891,1.05692 -2.483874,2.14248 -1.258984,1.08559 -2.310979,1.99959 -2.337766,2.03114 -0.02678,0.0319 -0.960915,0.88917 -2.075842,1.90582 -1.183152,1.07889 -2.247568,1.96611 -2.556574,2.131 -0.688719,0.36743 -1.700344,0.44279 -2.431618,0.18108 z"
       id="path7103"
       inkscape:connector-curvature="0" />
    <g
       id="g832"
       style="fill:#646464;fill-opacity:1"
       transform="translate(-32.808332,160.33761)">
      <path
         inkscape:connector-curvature="0"
         id="path7107"
         d="m 49.135639,134.76 c -1.731959,-0.2266 -4.127708,-1.01607 -5.62588,-1.8539 -4.024354,-2.25054 -6.908872,-5.98331 -8.010074,-10.36562 -0.557169,-2.21729 -0.629543,-4.99827 -0.185153,-7.11454 1.030644,-4.90815 4.088527,-8.98623 8.450078,-11.26927 3.690801,-1.93194 7.828343,-2.35891 12.014972,-1.23987 l 0.398664,0.10655 -0.287386,0.49815 c -0.158063,0.27398 -0.575587,0.92962 -0.927831,1.45698 l -0.640444,0.95883 -0.635,-0.14711 c -0.385802,-0.0894 -1.299528,-0.15164 -2.328333,-0.15866 -1.482616,-0.0101 -1.841371,0.0231 -2.882972,0.26705 -4.46869,1.04652 -7.934781,4.11673 -9.428394,8.35151 -0.955151,2.70811 -0.979988,5.75679 -0.06926,8.50205 1.278859,3.85495 4.571845,7.07057 8.452957,8.25438 6.283399,1.91656 12.857026,-0.99619 15.667669,-6.9423 0.547639,-1.15856 0.8533,-2.18447 1.068864,-3.5875 0.232921,-1.516 0.206029,-2.61151 -0.110579,-4.50455 l -0.07191,-0.42997 1.410162,-0.91633 c 1.075755,-0.69903 1.429471,-0.88183 1.491593,-0.77082 0.04479,0.08 0.174273,0.54299 0.287745,1.0288 0.929768,3.98062 0.276532,8.36008 -1.77244,11.88288 -0.95122,1.63544 -2.52565,3.43164 -4.133904,4.7162 -2.026746,1.61883 -5.014429,2.8748 -7.79286,3.27597 -0.852126,0.12303 -3.403316,0.12367 -4.340279,0.001 z"
         style="fill:#646464;fill-opacity:1;stroke-width:0.10583333" />
      <path
         inkscape:connector-curvature="0"
         id="path7105"
         d="m 112.90134,134.7713 c -0.32015,-0.0464 -1.09,-0.20793 -1.71078,-0.35898 -3.65704,-0.88979 -6.90435,-3.03922 -9.18939,-6.08255 -1.51626,-2.01942 -2.603861,-4.53981 -3.023386,-7.00633 -0.243316,-1.43053 -0.248964,-3.99681 -0.01189,-5.40193 0.163319,-0.96798 0.557825,-2.42974 0.655746,-2.42974 0.08854,0 2.3687,1.43517 2.78139,1.75065 0.0177,0.0135 -0.0504,0.44667 -0.15133,0.96258 -0.27094,1.38539 -0.2467,3.58578 0.0551,5.00558 0.52954,2.49082 1.5635,4.45887 3.31431,6.30848 4.30414,4.54702 11.08141,5.38389 16.45551,2.03195 0.92878,-0.5793 2.3186,-1.83064 3.05441,-2.75007 1.87125,-2.3382 2.83888,-4.98655 2.8939,-7.92046 0.0434,-2.31389 -0.39777,-4.23638 -1.43092,-6.23538 -1.8611,-3.60098 -5.09221,-6.01721 -9.15859,-6.84878 -1.21789,-0.24906 -3.64509,-0.2439 -4.83403,0.0103 -0.48509,0.1037 -0.89549,0.1727 -0.91199,0.15332 -0.12116,-0.14227 -1.66608,-2.55836 -1.71138,-2.67642 -0.0726,-0.18923 0.96574,-0.52239 2.38969,-0.76676 1.41037,-0.24203 4.07278,-0.23817 5.45484,0.008 6.62606,1.17986 11.81461,6.25095 13.23205,12.93252 0.23673,1.11588 0.32607,3.94659 0.16343,5.17833 -0.59655,4.51793 -3.00683,8.55306 -6.68577,11.19282 -1.06405,0.76349 -3.09723,1.82162 -4.22263,2.19756 -1.72537,0.57639 -2.81868,0.75447 -4.86833,0.79297 -1.07686,0.0203 -2.21986,-0.001 -2.54,-0.0476 z"
         style="fill:#646464;fill-opacity:1;stroke-width:0.10583333" />
      <path
         inkscape:connector-curvature="0"
         id="path7097"
         d="m 49.983419,71.256917 c -6.168099,-0.48384 -11.62424,-4.549829 -13.854421,-10.324501 -0.380484,-0.985202 -0.85184,-2.719799 -0.959874,-3.532351 -0.276723,-2.081321 -0.157231,-4.380725 0.326902,-6.290619 1.55041,-6.11633 6.0998,-10.524094 12.423643,-12.036883 0.89314,-0.213656 1.277244,-0.240705 3.439583,-0.242213 2.332237,-0.0016 2.482915,0.01087 3.598333,0.298531 4.30519,1.11027 7.591677,3.404735 9.95455,6.949781 1.170057,1.75545 2.013839,3.854725 2.44486,6.082653 0.254416,1.315063 0.256553,4.389657 0.0039,5.715 -0.255294,1.339575 -0.443014,1.907259 -0.62605,1.893217 -0.114917,-0.0088 -2.499405,-1.490397 -2.710832,-1.684363 -0.01935,-0.01775 0.04018,-0.506316 0.132292,-1.085696 0.703994,-4.428081 -0.990285,-8.977317 -4.411903,-11.846216 -1.92165,-1.611234 -3.863112,-2.536301 -6.165722,-2.937842 -1.195887,-0.208545 -3.372106,-0.213148 -4.512171,-0.0095 -5.432088,0.970115 -9.633803,5.205768 -10.610574,10.696278 -0.194387,1.092662 -0.146825,3.624417 0.08848,4.709583 1.133642,5.228176 5.008491,9.075513 10.242794,10.17007 1.36056,0.284509 3.524427,0.308895 4.794493,0.05403 0.465666,-0.09345 0.900714,-0.169908 0.966773,-0.169919 0.126095,-1.9e-5 1.83781,2.55457 1.83781,2.742776 0,0.246007 -2.126234,0.701836 -3.973409,0.851831 -0.741948,0.06025 -1.353986,0.102763 -1.360085,0.09448 -0.0061,-0.0083 -0.487335,-0.05242 -1.069418,-0.09808 z"
         style="fill:#646464;fill-opacity:1;stroke-width:0.10583333" />
      <path
         inkscape:connector-curvature="0"
         id="path7093"
         d="m 113.77751,71.259217 c -1.3231,-0.104701 -3.62784,-0.549564 -3.62784,-0.700251 0,-0.02818 1.76422,-2.771601 1.8386,-2.85907 0.009,-0.01042 0.37271,0.05283 0.80855,0.140573 0.46702,0.09402 1.40089,0.162109 2.2741,0.165812 1.25109,0.0053 1.67914,-0.03887 2.75051,-0.283848 2.67841,-0.612445 4.77932,-1.796642 6.6369,-3.740966 4.23355,-4.431195 4.77958,-11.181869 1.31989,-16.318033 -0.69415,-1.030521 -2.3456,-2.684176 -3.35188,-3.356342 -1.57764,-1.053829 -3.38459,-1.795845 -5.11469,-2.100324 -1.1224,-0.197531 -3.37513,-0.194699 -4.51372,0.0057 -2.67437,0.470644 -5.45123,1.947351 -7.13352,3.793537 -2.19836,2.412532 -3.26006,4.777026 -3.57174,7.954538 -0.10604,1.081083 -0.0986,1.466787 0.0503,2.592917 0.0962,0.727604 0.2038,1.428349 0.23921,1.557212 0.0567,0.206228 -0.10173,0.342522 -1.32217,1.137708 -0.7626,0.496877 -1.408621,0.903413 -1.435609,0.903413 -0.09362,0 -0.507133,-1.539564 -0.668004,-2.487083 -0.227085,-1.337518 -0.216363,-4.043619 0.02134,-5.385194 0.779612,-4.400099 3.340803,-8.330835 7.044473,-10.811369 4.42424,-2.963135 10.25832,-3.557074 15.13417,-1.540739 4.8306,1.997616 8.42286,6.110621 9.66829,11.069802 0.36505,1.453593 0.49172,2.487258 0.49172,4.012497 0,2.2008 -0.34603,4.039292 -1.13651,6.038263 -2.61153,6.604152 -9.30745,10.77269 -16.40232,10.21127 z"
         style="fill:#646464;fill-opacity:1;stroke-width:0.10583333" />
    </g>
    <g
       transform="translate(-32.808332,28.045912)"
       id="g1015">
      <g
         id="g979"
         inkscape:transform-center-x="-2.2203224"
         inkscape:transform-center-y="-0.13401647">
        <path
           inkscape:transform-center-y="-1.0374791"
           inkscape:transform-center-x="-2.4882511"
           style="fill:#cbcbcb;fill-opacity:0.34751772;stroke-width:0.12233882;filter:url(#filter862)"
           d="m 45.838943,41.297535 c -0.428308,0.172818 -0.848246,0.36579 -1.258397,0.578201 0.08372,0.20129 0.199926,0.537858 0.31651,0.935424 0.609648,2.078857 2.228512,5.953004 3.469665,8.302826 0.238724,0.451973 0.431628,0.843665 0.428381,0.870672 -0.0032,0.02697 -0.225658,0.303622 -0.494169,0.614748 -0.502509,0.582276 -0.859013,1.414879 -0.957931,2.237603 -0.0719,0.598025 0.159644,1.866294 0.431848,2.365608 l 0.209987,0.385358 -0.497687,0.546332 c -1.049851,1.153093 -3.348415,4.225334 -4.391498,5.869747 -0.599138,0.944521 -1.153066,1.831312 -1.23114,1.970417 -0.01672,0.02959 -0.03187,0.05496 -0.04708,0.07612 0.34017,0.292403 0.693576,0.569097 1.059106,0.829152 l 0.267807,-0.260794 c 1.779695,-1.734425 3.650977,-3.880474 5.268658,-6.041961 0.705672,-0.942888 1.157189,-1.445118 1.25962,-1.401426 0.08791,0.03749 0.621212,0.147903 1.185543,0.245426 0.959622,0.16596 1.076031,0.159046 1.799485,-0.107033 1.454779,-0.60941 1.871902,-1.085369 2.419423,-1.845309 l 0.482892,-0.771031 3.461912,0.413111 c 3.153412,0.376221 5.706084,0.558487 6.646824,0.47547 l 0.09003,-0.0079 c 0.06341,-0.309959 0.116841,-0.621879 0.159993,-0.935295 0.0199,-0.18644 0.03425,-0.37347 0.04734,-0.560472 l -0.07153,-0.01122 c -0.216796,-0.03372 -0.770128,-0.162625 -1.22995,-0.283855 -0.459836,-0.121239 -2.6711,-0.449364 -4.913977,-0.728927 L 55.672584,54.55044 55.51923,54.001939 c -0.23879,-0.854174 -1.063793,-1.909443 -1.873332,-2.396357 -0.721273,-0.433809 -1.757669,-0.666239 -2.59009,-0.580955 -0.384207,0.03935 -0.387148,0.03467 -1.017808,-1.515518 -1.09309,-2.686844 -2.730899,-5.943641 -3.808003,-7.573135 -0.172518,-0.260991 -0.316255,-0.497669 -0.39111,-0.637853 z"
           id="path973"
           inkscape:connector-curvature="0"
           sodipodi:nodetypes="ccccscsccccccccccsccccccccccccccscccc" />
        <path
           sodipodi:nodetypes="ccccscsccccccccccsccccccccccccccscccc"
           inkscape:connector-curvature="0"
           id="path975"
           d="m 44.227978,42.060671 c -0.404615,0.222711 -0.798515,0.464432 -1.180377,0.724285 0.107148,0.189857 0.262702,0.510146 0.425911,0.890952 0.853447,1.991217 2.923202,5.644414 4.435985,7.829274 0.29097,0.420245 0.529252,0.786108 0.529252,0.81331 0,0.02716 -0.1878,0.328388 -0.417251,0.669342 -0.429408,0.638099 -0.683973,1.507305 -0.683973,2.335954 0,0.602332 0.381287,1.833892 0.711149,2.297142 l 0.254486,0.357536 -0.428911,0.601836 c -0.904696,1.270171 -2.820083,4.594829 -3.65941,6.352 -0.482104,1.009287 -0.926212,1.955861 -0.987123,2.103292 -0.01307,0.03137 -0.02508,0.05837 -0.03766,0.0812 0.372642,0.249705 0.756551,0.482233 1.150511,0.696795 l 0.23476,-0.290898 c 1.559927,-1.93447 3.161649,-4.288554 4.50974,-6.627692 0.588071,-1.020384 0.976407,-1.572921 1.083322,-1.541769 0.09176,0.02673 0.634425,0.07269 1.206363,0.10215 0.972571,0.05022 1.087322,0.02946 1.773841,-0.321077 1.371629,-0.778713 1.728953,-1.301062 2.181843,-2.120927 l 0.387399,-0.823162 3.486472,-0.0031 c 3.175774,-0.0029 5.731951,-0.126657 6.656054,-0.321379 l 0.08844,-0.01862 c 0.02596,-0.315313 0.04177,-0.63138 0.0472,-0.947706 -0.0025,-0.187482 -0.01058,-0.374888 -0.0199,-0.562116 l -0.07236,-0.0026 c -0.219271,-0.0076 -0.784034,-0.06953 -1.25504,-0.135003 -0.47102,-0.06548 -2.705642,-0.127294 -4.965853,-0.13712 l -4.109516,-0.01765 -0.217734,-0.526273 c -0.339047,-0.819561 -1.284121,-1.768802 -2.145996,-2.155597 -0.7679,-0.344607 -1.824631,-0.451658 -2.640919,-0.267615 -0.376763,0.08493 -0.380241,0.08064 -1.191442,-1.383183 -1.406009,-2.537147 -3.420879,-5.575147 -4.684799,-7.064413 -0.202439,-0.23853 -0.373401,-0.456358 -0.464455,-0.586604 z"
           style="fill:#a7a7a7;fill-opacity:1;stroke-width:0.12233882" />
        <path
           style="fill:#000000;fill-opacity:0.18794328;stroke-width:0.12233882;filter:url(#filter858)"
           d="m 42.836837,42.930194 c -0.377269,0.266423 -0.741771,0.550543 -1.092289,0.851341 0.127643,0.176731 0.317928,0.477685 0.522566,0.837926 1.070079,1.88368 3.534137,5.283408 5.281027,7.286031 0.335999,0.385194 0.613577,0.722217 0.616609,0.749249 0.003,0.02699 -0.150026,0.347275 -0.340043,0.71168 -0.355607,0.681986 -0.5117,1.574151 -0.419335,2.397636 0.06714,0.598578 0.583325,1.779964 0.962767,2.203559 l 0.292753,0.326942 -0.359155,0.645894 c -0.75748,1.363097 -2.29035,4.880535 -2.928585,6.720311 -0.3666,1.056735 -0.702431,2.046913 -0.746529,2.200214 -0.0095,0.03263 -0.01842,0.0608 -0.02838,0.08489 0.398154,0.206613 0.805589,0.394899 1.22101,0.564212 l 0.200872,-0.315253 c 1.334582,-2.096291 2.663926,-4.614241 3.742886,-7.089066 0.47067,-1.079575 0.794998,-1.671954 0.904719,-1.652913 0.09417,0.01633 0.638574,0.0015 1.210231,-0.03295 0.972108,-0.0585 1.08383,-0.09192 1.726999,-0.516797 1.276283,-0.926748 1.573157,-1.485671 1.931839,-2.350908 l 0.293231,-0.861213 3.464401,-0.391698 c 3.15566,-0.356868 5.682114,-0.764777 6.578754,-1.06129 l 0.08581,-0.02836 c -0.0093,-0.316241 -0.02887,-0.632101 -0.05873,-0.947061 -0.02338,-0.186035 -0.0523,-0.371373 -0.08243,-0.556395 l -0.0722,0.0055 c -0.218752,0.01689 -0.786899,0.01829 -1.262268,0.0057 -0.475383,-0.01257 -2.70297,0.175082 -4.950191,0.41725 l -4.085875,0.440525 -0.275038,-0.498724 c -0.428286,-0.776662 -1.473277,-1.614646 -2.372895,-1.902962 -0.801527,-0.256866 -1.863605,-0.245462 -2.654292,0.02842 -0.364948,0.126397 -0.368883,0.122521 -1.338193,-1.24176 -1.680049,-2.364617 -4.020992,-5.159099 -5.443036,-6.498203 -0.227765,-0.214478 -0.421941,-0.411893 -0.526946,-0.531178 z"
           id="path977"
           inkscape:connector-curvature="0"
           sodipodi:nodetypes="ccccscsccccccccccsccccccccccccccscccc"
           inkscape:transform-center-x="-2.5427681"
           inkscape:transform-center-y="0.7830065" />
      </g>
      <path
         inkscape:transform-center-y="-1.0374791"
         inkscape:transform-center-x="-2.4882511"
         style="fill:#cbcbcb;fill-opacity:0.34751772;stroke-width:0.12233882;filter:url(#filter862)"
         d="m 45.838943,41.297535 c -0.428308,0.172818 -0.848246,0.36579 -1.258397,0.578201 0.08372,0.20129 0.199926,0.537858 0.31651,0.935424 0.609648,2.078857 2.228512,5.953004 3.469665,8.302826 0.238724,0.451973 0.431628,0.843665 0.428381,0.870672 -0.0032,0.02697 -0.225658,0.303622 -0.494169,0.614748 -0.502509,0.582276 -0.859013,1.414879 -0.957931,2.237603 -0.0719,0.598025 0.159644,1.866294 0.431848,2.365608 l 0.209987,0.385358 -0.497687,0.546332 c -1.049851,1.153093 -3.348415,4.225334 -4.391498,5.869747 -0.599138,0.944521 -1.153066,1.831312 -1.23114,1.970417 -0.01672,0.02959 -0.03187,0.05496 -0.04708,0.07612 0.34017,0.292403 0.693576,0.569097 1.059106,0.829152 l 0.267807,-0.260794 c 1.779695,-1.734425 3.650977,-3.880474 5.268658,-6.041961 0.705672,-0.942888 1.157189,-1.445118 1.25962,-1.401426 0.08791,0.03749 0.621212,0.147903 1.185543,0.245426 0.959622,0.16596 1.076031,0.159046 1.799485,-0.107033 1.454779,-0.60941 1.871902,-1.085369 2.419423,-1.845309 l 0.482892,-0.771031 3.461912,0.413111 c 3.153412,0.376221 5.706084,0.558487 6.646824,0.47547 l 0.09003,-0.0079 c 0.06341,-0.309959 0.116841,-0.621879 0.159993,-0.935295 0.0199,-0.18644 0.03425,-0.37347 0.04734,-0.560472 l -0.07153,-0.01122 c -0.216796,-0.03372 -0.770128,-0.162625 -1.22995,-0.283855 -0.459836,-0.121239 -2.6711,-0.449364 -4.913977,-0.728927 L 55.672584,54.55044 55.51923,54.001939 c -0.23879,-0.854174 -1.063793,-1.909443 -1.873332,-2.396357 -0.721273,-0.433809 -1.757669,-0.666239 -2.59009,-0.580955 -0.384207,0.03935 -0.387148,0.03467 -1.017808,-1.515518 -1.09309,-2.686844 -2.730899,-5.943641 -3.808003,-7.573135 -0.172518,-0.260991 -0.316255,-0.497669 -0.39111,-0.637853 z"
         id="path981"
         inkscape:connector-curvature="0"
         sodipodi:nodetypes="ccccscsccccccccccsccccccccccccccscccc"
         transform="rotate(54.692265,84.051379,116.68688)" />
      <path
         sodipodi:nodetypes="ccccscsccccccccccsccccccccccccccscccc"
         inkscape:connector-curvature="0"
         id="path983"
         d="m 121.93417,41.057067 c -0.4156,-0.20147 -0.84052,-0.383209 -1.27328,-0.544645 -0.093,0.197171 -0.26448,0.509229 -0.48091,0.86251 -1.13169,1.847323 -2.91666,5.647797 -3.8253,8.145097 -0.17477,0.480337 -0.33562,0.886246 -0.35782,0.901968 -0.0222,0.0157 -0.37652,0.03654 -0.78738,0.04636 -0.76891,0.01838 -1.62536,0.313011 -2.30159,0.791944 -0.49154,0.348128 -1.27619,1.371083 -1.46358,1.908014 l -0.14469,0.41432 -0.73903,-0.0022 c -1.55942,-0.0042 -5.37957,0.354307 -7.29863,0.684955 -1.10228,0.18991 -2.13142,0.37458 -2.28694,0.410084 -0.0332,0.0075 -0.0621,0.01327 -0.088,0.0162 0.0116,0.448419 0.0437,0.896106 0.0963,1.34161 l 0.37307,0.02345 c 2.48023,0.154932 5.32705,0.101448 8.01508,-0.150376 1.17258,-0.109848 1.84792,-0.112292 1.8843,-0.007 0.0312,0.09033 0.30735,0.559741 0.61387,1.043504 0.52114,0.822701 0.6044,0.904346 1.28725,1.261987 1.42823,0.66926 2.06102,0.658957 2.99183,0.554687 l 0.89566,-0.159621 2.01759,2.843378 c 1.83787,2.589944 3.41625,4.604409 4.10925,5.245989 l 0.0663,0.06141 c 0.27232,-0.161056 0.53939,-0.330831 0.80067,-0.509226 0.15155,-0.110398 0.29982,-0.225307 0.44722,-0.341124 l -0.0397,-0.06055 c -0.12053,-0.183331 -0.39641,-0.680004 -0.6152,-1.102215 -0.2188,-0.422225 -1.4599,-2.281537 -2.75821,-4.131683 l -2.36076,-3.363811 0.30362,-0.481852 c 0.47286,-0.750363 0.70127,-2.07023 0.51878,-2.997127 -0.1626,-0.825823 -0.686,-1.750051 -1.30797,-2.30982 -0.28707,-0.258374 -0.28558,-0.263692 0.44014,-1.771722 1.25784,-2.613777 2.57249,-6.013897 3.05732,-7.906079 0.0777,-0.303065 0.1566,-0.568477 0.21026,-0.718061 z"
         style="fill:#a7a7a7;fill-opacity:1;stroke-width:0.12233882" />
      <path
         style="fill:#000000;fill-opacity:0.18794328;stroke-width:0.12233882;filter:url(#filter858)"
         d="m 42.836837,42.930194 c -0.377269,0.266423 -0.741771,0.550543 -1.092289,0.851341 0.127643,0.176731 0.317928,0.477685 0.522566,0.837926 1.070079,1.88368 3.534137,5.283408 5.281027,7.286031 0.335999,0.385194 0.613577,0.722217 0.616609,0.749249 0.003,0.02699 -0.150026,0.347275 -0.340043,0.71168 -0.355607,0.681986 -0.5117,1.574151 -0.419335,2.397636 0.06714,0.598578 0.583325,1.779964 0.962767,2.203559 l 0.292753,0.326942 -0.359155,0.645894 c -0.75748,1.363097 -2.29035,4.880535 -2.928585,6.720311 -0.3666,1.056735 -0.702431,2.046913 -0.746529,2.200214 -0.0095,0.03263 -0.01842,0.0608 -0.02838,0.08489 0.398154,0.206613 0.805589,0.394899 1.22101,0.564212 l 0.200872,-0.315253 c 1.334582,-2.096291 2.663926,-4.614241 3.742886,-7.089066 0.47067,-1.079575 0.794998,-1.671954 0.904719,-1.652913 0.09417,0.01633 0.638574,0.0015 1.210231,-0.03295 0.972108,-0.0585 1.08383,-0.09192 1.726999,-0.516797 1.276283,-0.926748 1.573157,-1.485671 1.931839,-2.350908 l 0.293231,-0.861213 3.464401,-0.391698 c 3.15566,-0.356868 5.682114,-0.764777 6.578754,-1.06129 l 0.08581,-0.02836 c -0.0093,-0.316241 -0.02887,-0.632101 -0.05873,-0.947061 -0.02338,-0.186035 -0.0523,-0.371373 -0.08243,-0.556395 l -0.0722,0.0055 c -0.218752,0.01689 -0.786899,0.01829 -1.262268,0.0057 -0.475383,-0.01257 -2.70297,0.175082 -4.950191,0.41725 l -4.085875,0.440525 -0.275038,-0.498724 c -0.428286,-0.776662 -1.473277,-1.614646 -2.372895,-1.902962 -0.801527,-0.256866 -1.863605,-0.245462 -2.654292,0.02842 -0.364948,0.126397 -0.368883,0.122521 -1.338193,-1.24176 -1.680049,-2.364617 -4.020992,-5.159099 -5.443036,-6.498203 -0.227765,-0.214478 -0.421941,-0.411893 -0.526946,-0.531178 z"
         id="path985"
         inkscape:connector-curvature="0"
         sodipodi:nodetypes="ccccscsccccccccccsccccccccccccccscccc"
         inkscape:transform-center-x="-2.5427681"
         inkscape:transform-center-y="0.7830065"
         transform="rotate(54.692265,84.051379,116.68688)" />
      <g
         inkscape:transform-center-y="-2.2056587"
         inkscape:transform-center-x="-0.47308651"
         id="g993"
         transform="rotate(20.941876,-120.27762,86.06475)">
        <path
           sodipodi:nodetypes="ccccscsccccccccccsccccccccccccccscccc"
           inkscape:connector-curvature="0"
           id="path987"
           d="m 45.838943,41.297535 c -0.428308,0.172818 -0.848246,0.36579 -1.258397,0.578201 0.08372,0.20129 0.199926,0.537858 0.31651,0.935424 0.609648,2.078857 2.228512,5.953004 3.469665,8.302826 0.238724,0.451973 0.431628,0.843665 0.428381,0.870672 -0.0032,0.02697 -0.225658,0.303622 -0.494169,0.614748 -0.502509,0.582276 -0.859013,1.414879 -0.957931,2.237603 -0.0719,0.598025 0.159644,1.866294 0.431848,2.365608 l 0.209987,0.385358 -0.497687,0.546332 c -1.049851,1.153093 -3.348415,4.225334 -4.391498,5.869747 -0.599138,0.944521 -1.153066,1.831312 -1.23114,1.970417 -0.01672,0.02959 -0.03187,0.05496 -0.04708,0.07612 0.34017,0.292403 0.693576,0.569097 1.059106,0.829152 l 0.267807,-0.260794 c 1.779695,-1.734425 3.650977,-3.880474 5.268658,-6.041961 0.705672,-0.942888 1.157189,-1.445118 1.25962,-1.401426 0.08791,0.03749 0.621212,0.147903 1.185543,0.245426 0.959622,0.16596 1.076031,0.159046 1.799485,-0.107033 1.454779,-0.60941 1.871902,-1.085369 2.419423,-1.845309 l 0.482892,-0.771031 3.461912,0.413111 c 3.153412,0.376221 5.706084,0.558487 6.646824,0.47547 l 0.09003,-0.0079 c 0.06341,-0.309959 0.116841,-0.621879 0.159993,-0.935295 0.0199,-0.18644 0.03425,-0.37347 0.04734,-0.560472 l -0.07153,-0.01122 c -0.216796,-0.03372 -0.770128,-0.162625 -1.22995,-0.283855 -0.459836,-0.121239 -2.6711,-0.449364 -4.913977,-0.728927 L 55.672584,54.55044 55.51923,54.001939 c -0.23879,-0.854174 -1.063793,-1.909443 -1.873332,-2.396357 -0.721273,-0.433809 -1.757669,-0.666239 -2.59009,-0.580955 -0.384207,0.03935 -0.387148,0.03467 -1.017808,-1.515518 -1.09309,-2.686844 -2.730899,-5.943641 -3.808003,-7.573135 -0.172518,-0.260991 -0.316255,-0.497669 -0.39111,-0.637853 z"
           style="fill:#cbcbcb;fill-opacity:0.34751772;stroke-width:0.12233882;filter:url(#filter862)"
           inkscape:transform-center-x="-2.4882511"
           inkscape:transform-center-y="-1.0374791" />
        <path
           style="fill:#a7a7a7;fill-opacity:1;stroke-width:0.12233882"
           d="m 44.227978,42.060671 c -0.404615,0.222711 -0.798515,0.464432 -1.180377,0.724285 0.107148,0.189857 0.262702,0.510146 0.425911,0.890952 0.853447,1.991217 2.923202,5.644414 4.435985,7.829274 0.29097,0.420245 0.529252,0.786108 0.529252,0.81331 0,0.02716 -0.1878,0.328388 -0.417251,0.669342 -0.429408,0.638099 -0.683973,1.507305 -0.683973,2.335954 0,0.602332 0.381287,1.833892 0.711149,2.297142 l 0.254486,0.357536 -0.428911,0.601836 c -0.904696,1.270171 -2.820083,4.594829 -3.65941,6.352 -0.482104,1.009287 -0.926212,1.955861 -0.987123,2.103292 -0.01307,0.03137 -0.02508,0.05837 -0.03766,0.0812 0.372642,0.249705 0.756551,0.482233 1.150511,0.696795 l 0.23476,-0.290898 c 1.559927,-1.93447 3.161649,-4.288554 4.50974,-6.627692 0.588071,-1.020384 0.976407,-1.572921 1.083322,-1.541769 0.09176,0.02673 0.634425,0.07269 1.206363,0.10215 0.972571,0.05022 1.087322,0.02946 1.773841,-0.321077 1.371629,-0.778713 1.728953,-1.301062 2.181843,-2.120927 l 0.387399,-0.823162 3.486472,-0.0031 c 3.175774,-0.0029 5.731951,-0.126657 6.656054,-0.321379 l 0.08844,-0.01862 c 0.02596,-0.315313 0.04177,-0.63138 0.0472,-0.947706 -0.0025,-0.187482 -0.01058,-0.374888 -0.0199,-0.562116 l -0.07236,-0.0026 c -0.219271,-0.0076 -0.784034,-0.06953 -1.25504,-0.135003 -0.47102,-0.06548 -2.705642,-0.127294 -4.965853,-0.13712 l -4.109516,-0.01765 -0.217734,-0.526273 c -0.339047,-0.819561 -1.284121,-1.768802 -2.145996,-2.155597 -0.7679,-0.344607 -1.824631,-0.451658 -2.640919,-0.267615 -0.376763,0.08493 -0.380241,0.08064 -1.191442,-1.383183 -1.406009,-2.537147 -3.420879,-5.575147 -4.684799,-7.064413 -0.202439,-0.23853 -0.373401,-0.456358 -0.464455,-0.586604 z"
           id="path989"
           inkscape:connector-curvature="0"
           sodipodi:nodetypes="ccccscsccccccccccsccccccccccccccscccc" />
        <path
           inkscape:transform-center-y="0.7830065"
           inkscape:transform-center-x="-2.5427681"
           sodipodi:nodetypes="ccccscsccccccccccsccccccccccccccscccc"
           inkscape:connector-curvature="0"
           id="path991"
           d="m 42.836837,42.930194 c -0.377269,0.266423 -0.741771,0.550543 -1.092289,0.851341 0.127643,0.176731 0.317928,0.477685 0.522566,0.837926 1.070079,1.88368 3.534137,5.283408 5.281027,7.286031 0.335999,0.385194 0.613577,0.722217 0.616609,0.749249 0.003,0.02699 -0.150026,0.347275 -0.340043,0.71168 -0.355607,0.681986 -0.5117,1.574151 -0.419335,2.397636 0.06714,0.598578 0.583325,1.779964 0.962767,2.203559 l 0.292753,0.326942 -0.359155,0.645894 c -0.75748,1.363097 -2.29035,4.880535 -2.928585,6.720311 -0.3666,1.056735 -0.702431,2.046913 -0.746529,2.200214 -0.0095,0.03263 -0.01842,0.0608 -0.02838,0.08489 0.398154,0.206613 0.805589,0.394899 1.22101,0.564212 l 0.200872,-0.315253 c 1.334582,-2.096291 2.663926,-4.614241 3.742886,-7.089066 0.47067,-1.079575 0.794998,-1.671954 0.904719,-1.652913 0.09417,0.01633 0.638574,0.0015 1.210231,-0.03295 0.972108,-0.0585 1.08383,-0.09192 1.726999,-0.516797 1.276283,-0.926748 1.573157,-1.485671 1.931839,-2.350908 l 0.293231,-0.861213 3.464401,-0.391698 c 3.15566,-0.356868 5.682114,-0.764777 6.578754,-1.06129 l 0.08581,-0.02836 c -0.0093,-0.316241 -0.02887,-0.632101 -0.05873,-0.947061 -0.02338,-0.186035 -0.0523,-0.371373 -0.08243,-0.556395 l -0.0722,0.0055 c -0.218752,0.01689 -0.786899,0.01829 -1.262268,0.0057 -0.475383,-0.01257 -2.70297,0.175082 -4.950191,0.41725 l -4.085875,0.440525 -0.275038,-0.498724 c -0.428286,-0.776662 -1.473277,-1.614646 -2.372895,-1.902962 -0.801527,-0.256866 -1.863605,-0.245462 -2.654292,0.02842 -0.364948,0.126397 -0.368883,0.122521 -1.338193,-1.24176 -1.680049,-2.364617 -4.020992,-5.159099 -5.443036,-6.498203 -0.227765,-0.214478 -0.421941,-0.411893 -0.526946,-0.531178 z"
           style="fill:#000000;fill-opacity:0.18794328;stroke-width:0.12233882;filter:url(#filter858)" />
      </g>
      <g
         transform="rotate(42.833385,2.3834083,167.55764)"
         id="g1001"
         inkscape:transform-center-x="1.3613786"
         inkscape:transform-center-y="-1.7669313">
        <path
           inkscape:transform-center-y="-1.0374791"
           inkscape:transform-center-x="-2.4882511"
           style="fill:#cbcbcb;fill-opacity:0.34751772;stroke-width:0.12233882;filter:url(#filter862)"
           d="m 45.838943,41.297535 c -0.428308,0.172818 -0.848246,0.36579 -1.258397,0.578201 0.08372,0.20129 0.199926,0.537858 0.31651,0.935424 0.609648,2.078857 2.228512,5.953004 3.469665,8.302826 0.238724,0.451973 0.431628,0.843665 0.428381,0.870672 -0.0032,0.02697 -0.225658,0.303622 -0.494169,0.614748 -0.502509,0.582276 -0.859013,1.414879 -0.957931,2.237603 -0.0719,0.598025 0.159644,1.866294 0.431848,2.365608 l 0.209987,0.385358 -0.497687,0.546332 c -1.049851,1.153093 -3.348415,4.225334 -4.391498,5.869747 -0.599138,0.944521 -1.153066,1.831312 -1.23114,1.970417 -0.01672,0.02959 -0.03187,0.05496 -0.04708,0.07612 0.34017,0.292403 0.693576,0.569097 1.059106,0.829152 l 0.267807,-0.260794 c 1.779695,-1.734425 3.650977,-3.880474 5.268658,-6.041961 0.705672,-0.942888 1.157189,-1.445118 1.25962,-1.401426 0.08791,0.03749 0.621212,0.147903 1.185543,0.245426 0.959622,0.16596 1.076031,0.159046 1.799485,-0.107033 1.454779,-0.60941 1.871902,-1.085369 2.419423,-1.845309 l 0.482892,-0.771031 3.461912,0.413111 c 3.153412,0.376221 5.706084,0.558487 6.646824,0.47547 l 0.09003,-0.0079 c 0.06341,-0.309959 0.116841,-0.621879 0.159993,-0.935295 0.0199,-0.18644 0.03425,-0.37347 0.04734,-0.560472 l -0.07153,-0.01122 c -0.216796,-0.03372 -0.770128,-0.162625 -1.22995,-0.283855 -0.459836,-0.121239 -2.6711,-0.449364 -4.913977,-0.728927 L 55.672584,54.55044 55.51923,54.001939 c -0.23879,-0.854174 -1.063793,-1.909443 -1.873332,-2.396357 -0.721273,-0.433809 -1.757669,-0.666239 -2.59009,-0.580955 -0.384207,0.03935 -0.387148,0.03467 -1.017808,-1.515518 -1.09309,-2.686844 -2.730899,-5.943641 -3.808003,-7.573135 -0.172518,-0.260991 -0.316255,-0.497669 -0.39111,-0.637853 z"
           id="path995"
           inkscape:connector-curvature="0"
           sodipodi:nodetypes="ccccscsccccccccccsccccccccccccccscccc" />
        <path
           sodipodi:nodetypes="ccccscsccccccccccsccccccccccccccscccc"
           inkscape:connector-curvature="0"
           id="path997"
           d="m 44.227978,42.060671 c -0.404615,0.222711 -0.798515,0.464432 -1.180377,0.724285 0.107148,0.189857 0.262702,0.510146 0.425911,0.890952 0.853447,1.991217 2.923202,5.644414 4.435985,7.829274 0.29097,0.420245 0.529252,0.786108 0.529252,0.81331 0,0.02716 -0.1878,0.328388 -0.417251,0.669342 -0.429408,0.638099 -0.683973,1.507305 -0.683973,2.335954 0,0.602332 0.381287,1.833892 0.711149,2.297142 l 0.254486,0.357536 -0.428911,0.601836 c -0.904696,1.270171 -2.820083,4.594829 -3.65941,6.352 -0.482104,1.009287 -0.926212,1.955861 -0.987123,2.103292 -0.01307,0.03137 -0.02508,0.05837 -0.03766,0.0812 0.372642,0.249705 0.756551,0.482233 1.150511,0.696795 l 0.23476,-0.290898 c 1.559927,-1.93447 3.161649,-4.288554 4.50974,-6.627692 0.588071,-1.020384 0.976407,-1.572921 1.083322,-1.541769 0.09176,0.02673 0.634425,0.07269 1.206363,0.10215 0.972571,0.05022 1.087322,0.02946 1.773841,-0.321077 1.371629,-0.778713 1.728953,-1.301062 2.181843,-2.120927 l 0.387399,-0.823162 3.486472,-0.0031 c 3.175774,-0.0029 5.731951,-0.126657 6.656054,-0.321379 l 0.08844,-0.01862 c 0.02596,-0.315313 0.04177,-0.63138 0.0472,-0.947706 -0.0025,-0.187482 -0.01058,-0.374888 -0.0199,-0.562116 l -0.07236,-0.0026 c -0.219271,-0.0076 -0.784034,-0.06953 -1.25504,-0.135003 -0.47102,-0.06548 -2.705642,-0.127294 -4.965853,-0.13712 l -4.109516,-0.01765 -0.217734,-0.526273 c -0.339047,-0.819561 -1.284121,-1.768802 -2.145996,-2.155597 -0.7679,-0.344607 -1.824631,-0.451658 -2.640919,-0.267615 -0.376763,0.08493 -0.380241,0.08064 -1.191442,-1.383183 -1.406009,-2.537147 -3.420879,-5.575147 -4.684799,-7.064413 -0.202439,-0.23853 -0.373401,-0.456358 -0.464455,-0.586604 z"
           style="fill:#a7a7a7;fill-opacity:1;stroke-width:0.12233882" />
        <path
           style="fill:#000000;fill-opacity:0.18794328;stroke-width:0.12233882;filter:url(#filter858)"
           d="m 42.836837,42.930194 c -0.377269,0.266423 -0.741771,0.550543 -1.092289,0.851341 0.127643,0.176731 0.317928,0.477685 0.522566,0.837926 1.070079,1.88368 3.534137,5.283408 5.281027,7.286031 0.335999,0.385194 0.613577,0.722217 0.616609,0.749249 0.003,0.02699 -0.150026,0.347275 -0.340043,0.71168 -0.355607,0.681986 -0.5117,1.574151 -0.419335,2.397636 0.06714,0.598578 0.583325,1.779964 0.962767,2.203559 l 0.292753,0.326942 -0.359155,0.645894 c -0.75748,1.363097 -2.29035,4.880535 -2.928585,6.720311 -0.3666,1.056735 -0.702431,2.046913 -0.746529,2.200214 -0.0095,0.03263 -0.01842,0.0608 -0.02838,0.08489 0.398154,0.206613 0.805589,0.394899 1.22101,0.564212 l 0.200872,-0.315253 c 1.334582,-2.096291 2.663926,-4.614241 3.742886,-7.089066 0.47067,-1.079575 0.794998,-1.671954 0.904719,-1.652913 0.09417,0.01633 0.638574,0.0015 1.210231,-0.03295 0.972108,-0.0585 1.08383,-0.09192 1.726999,-0.516797 1.276283,-0.926748 1.573157,-1.485671 1.931839,-2.350908 l 0.293231,-0.861213 3.464401,-0.391698 c 3.15566,-0.356868 5.682114,-0.764777 6.578754,-1.06129 l 0.08581,-0.02836 c -0.0093,-0.316241 -0.02887,-0.632101 -0.05873,-0.947061 -0.02338,-0.186035 -0.0523,-0.371373 -0.08243,-0.556395 l -0.0722,0.0055 c -0.218752,0.01689 -0.786899,0.01829 -1.262268,0.0057 -0.475383,-0.01257 -2.70297,0.175082 -4.950191,0.41725 l -4.085875,0.440525 -0.275038,-0.498724 c -0.428286,-0.776662 -1.473277,-1.614646 -2.372895,-1.902962 -0.801527,-0.256866 -1.863605,-0.245462 -2.654292,0.02842 -0.364948,0.126397 -0.368883,0.122521 -1.338193,-1.24176 -1.680049,-2.364617 -4.020992,-5.159099 -5.443036,-6.498203 -0.227765,-0.214478 -0.421941,-0.411893 -0.526946,-0.531178 z"
           id="path999"
           inkscape:connector-curvature="0"
           sodipodi:nodetypes="ccccscsccccccccccsccccccccccccccscccc"
           inkscape:transform-center-x="-2.5427681"
           inkscape:transform-center-y="0.7830065" />
      </g>
      <path
         style="fill:#313131;fill-opacity:1;stroke-width:0.09740685"
         d="m 50.285861,121.52295 c -0.984948,-0.35249 -1.689611,-1.13722 -1.95643,-2.17866 -0.341538,-1.3332 0.01945,-2.11888 1.923698,-4.18719 7.721974,-8.38706 12.052376,-14.03277 14.599505,-19.033907 1.709799,-3.357072 2.473318,-5.976133 2.598535,-8.913629 0.201017,-4.715766 -1.460328,-9.169686 -5.613188,-15.048463 -1.959008,-2.773167 -5.495182,-7.071404 -8.576171,-10.42439 -0.296307,-0.322463 -0.916101,-1.001875 -1.377325,-1.509806 -0.461215,-0.50793 -1.315963,-1.440028 -1.89943,-2.071326 -1.190447,-1.288038 -1.547944,-1.837426 -1.697305,-2.608366 -0.475572,-2.454656 2.119123,-4.394591 4.391086,-3.283022 0.343216,0.167922 1.079481,0.759941 2.043688,1.643309 2.875061,2.634002 3.366787,3.074225 5.107056,4.572171 9.321647,8.023633 15.396104,11.631156 21.092781,12.526661 1.359579,0.213722 3.903552,0.210643 5.211267,-0.006 3.691512,-0.612424 7.344968,-2.332479 11.981044,-5.640711 2.333958,-1.665459 7.170718,-5.629311 9.454628,-7.748329 3.22264,-2.989957 5.59158,-5.071008 6.05427,-5.31847 0.6338,-0.338991 1.61546,-0.442222 2.32259,-0.244239 0.92378,0.258629 1.74705,1.089487 2.03266,2.051273 0.18636,0.62743 0.19143,1.05792 0.0202,1.6972 -0.21132,0.788349 -0.38296,1.014975 -2.54584,3.360747 -8.68558,9.419979 -13.6071,16.358771 -15.499639,21.85266 -0.8039,2.333686 -1.057067,3.829287 -1.049602,6.200306 0.0097,3.06855 0.603158,5.402217 2.195091,8.631274 1.87854,3.810269 4.42594,7.350147 9.48376,13.178487 2.34888,2.70674 4.18476,4.75052 6.1012,6.79221 1.11084,1.18345 1.39627,1.75734 1.39792,2.8113 9.2e-4,0.65693 -0.0416,0.86651 -0.26953,1.33104 -0.29843,0.60766 -0.81268,1.12499 -1.45379,1.46246 -0.34477,0.18147 -0.57275,0.2202 -1.29506,0.22002 -1.21609,0 -1.52143,-0.1781 -3.63827,-2.11858 -2.92169,-2.67842 -3.5783,-3.2685 -5.80071,-5.21287 -8.457991,-7.40005 -13.880473,-10.67226 -19.344761,-11.67356 -1.259178,-0.23077 -4.237936,-0.22955 -5.587995,0.002 -4.077381,0.70011 -8.521548,2.89774 -13.893378,6.87039 -0.986038,0.72915 -4.096348,3.16704 -4.626826,3.62646 -0.107147,0.0928 -1.224891,1.05692 -2.483874,2.14248 -1.258984,1.08559 -2.310979,1.99959 -2.337766,2.03114 -0.02678,0.0319 -0.960915,0.88917 -2.075842,1.90582 -1.183152,1.07889 -2.247568,1.96611 -2.556574,2.131 -0.688719,0.36743 -1.700344,0.44279 -2.431618,0.18108 z"
         id="path1003"
         inkscape:connector-curvature="0" />
      <g
         id="g1013"
         style="fill:#646464;fill-opacity:1">
        <path
           inkscape:connector-curvature="0"
           id="path1005"
           d="m 49.135639,134.76 c -1.731959,-0.2266 -4.127708,-1.01607 -5.62588,-1.8539 -4.024354,-2.25054 -6.908872,-5.98331 -8.010074,-10.36562 -0.557169,-2.21729 -0.629543,-4.99827 -0.185153,-7.11454 1.030644,-4.90815 4.088527,-8.98623 8.450078,-11.26927 3.690801,-1.93194 7.828343,-2.35891 12.014972,-1.23987 l 0.398664,0.10655 -0.287386,0.49815 c -0.158063,0.27398 -0.575587,0.92962 -0.927831,1.45698 l -0.640444,0.95883 -0.635,-0.14711 c -0.385802,-0.0894 -1.299528,-0.15164 -2.328333,-0.15866 -1.482616,-0.0101 -1.841371,0.0231 -2.882972,0.26705 -4.46869,1.04652 -7.934781,4.11673 -9.428394,8.35151 -0.955151,2.70811 -0.979988,5.75679 -0.06926,8.50205 1.278859,3.85495 4.571845,7.07057 8.452957,8.25438 6.283399,1.91656 12.857026,-0.99619 15.667669,-6.9423 0.547639,-1.15856 0.8533,-2.18447 1.068864,-3.5875 0.232921,-1.516 0.206029,-2.61151 -0.110579,-4.50455 l -0.07191,-0.42997 1.410162,-0.91633 c 1.075755,-0.69903 1.429471,-0.88183 1.491593,-0.77082 0.04479,0.08 0.174273,0.54299 0.287745,1.0288 0.929768,3.98062 0.276532,8.36008 -1.77244,11.88288 -0.95122,1.63544 -2.52565,3.43164 -4.133904,4.7162 -2.026746,1.61883 -5.014429,2.8748 -7.79286,3.27597 -0.852126,0.12303 -3.403316,0.12367 -4.340279,0.001 z"
           style="fill:#646464;fill-opacity:1;stroke-width:0.10583333" />
        <path
           inkscape:connector-curvature="0"
           id="path1007"
           d="m 112.90134,134.7713 c -0.32015,-0.0464 -1.09,-0.20793 -1.71078,-0.35898 -3.65704,-0.88979 -6.90435,-3.03922 -9.18939,-6.08255 -1.51626,-2.01942 -2.603861,-4.53981 -3.023386,-7.00633 -0.243316,-1.43053 -0.248964,-3.99681 -0.01189,-5.40193 0.163319,-0.96798 0.557825,-2.42974 0.655746,-2.42974 0.08854,0 2.3687,1.43517 2.78139,1.75065 0.0177,0.0135 -0.0504,0.44667 -0.15133,0.96258 -0.27094,1.38539 -0.2467,3.58578 0.0551,5.00558 0.52954,2.49082 1.5635,4.45887 3.31431,6.30848 4.30414,4.54702 11.08141,5.38389 16.45551,2.03195 0.92878,-0.5793 2.3186,-1.83064 3.05441,-2.75007 1.87125,-2.3382 2.83888,-4.98655 2.8939,-7.92046 0.0434,-2.31389 -0.39777,-4.23638 -1.43092,-6.23538 -1.8611,-3.60098 -5.09221,-6.01721 -9.15859,-6.84878 -1.21789,-0.24906 -3.64509,-0.2439 -4.83403,0.0103 -0.48509,0.1037 -0.89549,0.1727 -0.91199,0.15332 -0.12116,-0.14227 -1.66608,-2.55836 -1.71138,-2.67642 -0.0726,-0.18923 0.96574,-0.52239 2.38969,-0.76676 1.41037,-0.24203 4.07278,-0.23817 5.45484,0.008 6.62606,1.17986 11.81461,6.25095 13.23205,12.93252 0.23673,1.11588 0.32607,3.94659 0.16343,5.17833 -0.59655,4.51793 -3.00683,8.55306 -6.68577,11.19282 -1.06405,0.76349 -3.09723,1.82162 -4.22263,2.19756 -1.72537,0.57639 -2.81868,0.75447 -4.86833,0.79297 -1.07686,0.0203 -2.21986,-0.001 -2.54,-0.0476 z"
           style="fill:#646464;fill-opacity:1;stroke-width:0.10583333" />
        <path
           inkscape:connector-curvature="0"
           id="path1009"
           d="m 49.983419,71.256917 c -6.168099,-0.48384 -11.62424,-4.549829 -13.854421,-10.324501 -0.380484,-0.985202 -0.85184,-2.719799 -0.959874,-3.532351 -0.276723,-2.081321 -0.157231,-4.380725 0.326902,-6.290619 1.55041,-6.11633 6.0998,-10.524094 12.423643,-12.036883 0.89314,-0.213656 1.277244,-0.240705 3.439583,-0.242213 2.332237,-0.0016 2.482915,0.01087 3.598333,0.298531 4.30519,1.11027 7.591677,3.404735 9.95455,6.949781 1.170057,1.75545 2.013839,3.854725 2.44486,6.082653 0.254416,1.315063 0.256553,4.389657 0.0039,5.715 -0.255294,1.339575 -0.443014,1.907259 -0.62605,1.893217 -0.114917,-0.0088 -2.499405,-1.490397 -2.710832,-1.684363 -0.01935,-0.01775 0.04018,-0.506316 0.132292,-1.085696 0.703994,-4.428081 -0.990285,-8.977317 -4.411903,-11.846216 -1.92165,-1.611234 -3.863112,-2.536301 -6.165722,-2.937842 -1.195887,-0.208545 -3.372106,-0.213148 -4.512171,-0.0095 -5.432088,0.970115 -9.633803,5.205768 -10.610574,10.696278 -0.194387,1.092662 -0.146825,3.624417 0.08848,4.709583 1.133642,5.228176 5.008491,9.075513 10.242794,10.17007 1.36056,0.284509 3.524427,0.308895 4.794493,0.05403 0.465666,-0.09345 0.900714,-0.169908 0.966773,-0.169919 0.126095,-1.9e-5 1.83781,2.55457 1.83781,2.742776 0,0.246007 -2.126234,0.701836 -3.973409,0.851831 -0.741948,0.06025 -1.353986,0.102763 -1.360085,0.09448 -0.0061,-0.0083 -0.487335,-0.05242 -1.069418,-0.09808 z"
           style="fill:#646464;fill-opacity:1;stroke-width:0.10583333" />
        <path
           inkscape:connector-curvature="0"
           id="path1011"
           d="m 113.77751,71.259217 c -1.3231,-0.104701 -3.62784,-0.549564 -3.62784,-0.700251 0,-0.02818 1.76422,-2.771601 1.8386,-2.85907 0.009,-0.01042 0.37271,0.05283 0.80855,0.140573 0.46702,0.09402 1.40089,0.162109 2.2741,0.165812 1.25109,0.0053 1.67914,-0.03887 2.75051,-0.283848 2.67841,-0.612445 4.77932,-1.796642 6.6369,-3.740966 4.23355,-4.431195 4.77958,-11.181869 1.31989,-16.318033 -0.69415,-1.030521 -2.3456,-2.684176 -3.35188,-3.356342 -1.57764,-1.053829 -3.38459,-1.795845 -5.11469,-2.100324 -1.1224,-0.197531 -3.37513,-0.194699 -4.51372,0.0057 -2.67437,0.470644 -5.45123,1.947351 -7.13352,3.793537 -2.19836,2.412532 -3.26006,4.777026 -3.57174,7.954538 -0.10604,1.081083 -0.0986,1.466787 0.0503,2.592917 0.0962,0.727604 0.2038,1.428349 0.23921,1.557212 0.0567,0.206228 -0.10173,0.342522 -1.32217,1.137708 -0.7626,0.496877 -1.408621,0.903413 -1.435609,0.903413 -0.09362,0 -0.507133,-1.539564 -0.668004,-2.487083 -0.227085,-1.337518 -0.216363,-4.043619 0.02134,-5.385194 0.779612,-4.400099 3.340803,-8.330835 7.044473,-10.811369 4.42424,-2.963135 10.25832,-3.557074 15.13417,-1.540739 4.8306,1.997616 8.42286,6.110621 9.66829,11.069802 0.36505,1.453593 0.49172,2.487258 0.49172,4.012497 0,2.2008 -0.34603,4.039292 -1.13651,6.038263 -2.61153,6.604152 -9.30745,10.77269 -16.40232,10.21127 z"
           style="fill:#646464;fill-opacity:1;stroke-width:0.10583333" />
      </g>
    </g>
  </g>
</svg>
