<?xml version="1.0" encoding="UTF-8" standalone="no"?>
<!-- Created with Inkscape (http://www.inkscape.org/) -->

<svg
   xmlns:dc="http://purl.org/dc/elements/1.1/"
   xmlns:cc="http://creativecommons.org/ns#"
   xmlns:rdf="http://www.w3.org/1999/02/22-rdf-syntax-ns#"
   xmlns:svg="http://www.w3.org/2000/svg"
   xmlns="http://www.w3.org/2000/svg"
   xmlns:xlink="http://www.w3.org/1999/xlink"
   xmlns:sodipodi="http://sodipodi.sourceforge.net/DTD/sodipodi-0.dtd"
   xmlns:inkscape="http://www.inkscape.org/namespaces/inkscape"
   width="210mm"
   height="297mm"
   viewBox="0 0 210 297"
   version="1.1"
   id="svg8"
   inkscape:version="0.92.4 5da689c313, 2019-01-14"
   sodipodi:docname="slide_4.svg">
  <defs
     id="defs2">
    <marker
       inkscape:isstock="true"
       style="overflow:visible;"
       id="marker1335"
       refX="0.0"
       refY="0.0"
       orient="auto"
       inkscape:stockid="Arrow2Send">
      <path
         transform="scale(0.3) rotate(180) translate(-2.3,0)"
         d="M 8.7185878,4.0337352 L -2.2072895,0.016013256 L 8.7185884,-4.0017078 C 6.9730900,-1.6296469 6.9831476,1.6157441 8.7185878,4.0337352 z "
         style="fill-rule:evenodd;stroke-width:0.625;stroke-linejoin:round;stroke:#000000;stroke-opacity:1;fill:#000000;fill-opacity:1"
         id="path1333" />
    </marker>
    <marker
       inkscape:stockid="Arrow2Send"
       orient="auto"
       refY="0.0"
       refX="0.0"
       id="Arrow2Send"
       style="overflow:visible;"
       inkscape:isstock="true"
       inkscape:collect="always">
      <path
         id="path1012"
         style="fill-rule:evenodd;stroke-width:0.625;stroke-linejoin:round;stroke:#000000;stroke-opacity:1;fill:#000000;fill-opacity:1"
         d="M 8.7185878,4.0337352 L -2.2072895,0.016013256 L 8.7185884,-4.0017078 C 6.9730900,-1.6296469 6.9831476,1.6157441 8.7185878,4.0337352 z "
         transform="scale(0.3) rotate(180) translate(-2.3,0)" />
    </marker>
    <marker
       inkscape:stockid="Arrow2Mend"
       orient="auto"
       refY="0.0"
       refX="0.0"
       id="Arrow2Mend"
       style="overflow:visible;"
       inkscape:isstock="true">
      <path
         id="path1006"
         style="fill-rule:evenodd;stroke-width:0.625;stroke-linejoin:round;stroke:#000000;stroke-opacity:1;fill:#000000;fill-opacity:1"
         d="M 8.7185878,4.0337352 L -2.2072895,0.016013256 L 8.7185884,-4.0017078 C 6.9730900,-1.6296469 6.9831476,1.6157441 8.7185878,4.0337352 z "
         transform="scale(0.6) rotate(180) translate(0,0)" />
    </marker>
    <marker
       inkscape:stockid="Arrow1Lend"
       orient="auto"
       refY="0.0"
       refX="0.0"
       id="Arrow1Lend"
       style="overflow:visible;"
       inkscape:isstock="true">
      <path
         id="path982"
         d="M 0.0,0.0 L 5.0,-5.0 L -12.5,0.0 L 5.0,5.0 L 0.0,0.0 z "
         style="fill-rule:evenodd;stroke:#000000;stroke-width:1pt;stroke-opacity:1;fill:#000000;fill-opacity:1"
         transform="scale(0.8) rotate(180) translate(12.5,0)" />
    </marker>
    <clipPath
       clipPathUnits="userSpaceOnUse"
       id="clipPath885">
      <rect
         style="opacity:1;fill:#37d634;fill-opacity:1;fill-rule:nonzero;stroke:none;stroke-width:2.81200004;stroke-linecap:butt;stroke-linejoin:miter;stroke-miterlimit:4;stroke-dasharray:none;stroke-dashoffset:0;stroke-opacity:1;paint-order:stroke markers fill"
         id="rect887"
         width="80.508926"
         height="65.767853"
         x="83.154762"
         y="179.4494" />
    </clipPath>
  </defs>
  <sodipodi:namedview
     id="base"
     pagecolor="#ffffff"
     bordercolor="#666666"
     borderopacity="1.0"
     inkscape:pageopacity="0.0"
     inkscape:pageshadow="2"
     inkscape:zoom="0.49497475"
     inkscape:cx="309.1062"
     inkscape:cy="383.49827"
     inkscape:document-units="mm"
     inkscape:current-layer="layer1"
     showgrid="false" />
  <metadata
     id="metadata5">
    <rdf:RDF>
      <cc:Work
         rdf:about="">
        <dc:format>image/svg+xml</dc:format>
        <dc:type
           rdf:resource="http://purl.org/dc/dcmitype/StillImage" />
        <dc:title></dc:title>
      </cc:Work>
    </rdf:RDF>
  </metadata>
  <g
     inkscape:label="Layer 1"
     inkscape:groupmode="layer"
     id="layer1">
    <image
       sodipodi:absref="/home/jake/code/NASA_LIFO/lifo-spaceapp/presentation/files/emptysea.png"
       xlink:href="emptysea.png"
       inkscape:export-ydpi="124.26285"
       inkscape:export-xdpi="124.26285"
       transform="matrix(0.97835107,0,0,0.97835107,26.599694,14.716419)"
       clip-path="url(#clipPath885)"
       width="114.1236"
       height="52.563889"
       preserveAspectRatio="none"
       style="image-rendering:optimizeQuality"
       id="image880"
       x="93.826294"
       y="189.07526" />
    <g
       id="g975"
       transform="translate(10.583333,-22.754165)"
       inkscape:export-xdpi="124.26285"
       inkscape:export-ydpi="124.26285">
      <rect
         y="226.69641"
         x="31.145235"
         height="30.238094"
         width="34.421345"
         id="rect815"
         style="opacity:1;fill:#37d634;fill-opacity:1;fill-rule:nonzero;stroke:none;stroke-width:2.16240311;stroke-linecap:butt;stroke-linejoin:miter;stroke-miterlimit:4;stroke-dasharray:none;stroke-dashoffset:0;stroke-opacity:1;paint-order:stroke markers fill" />
      <path
         inkscape:connector-curvature="0"
         id="path851"
         d="m 47.665626,252.84243 c -1.167106,-0.0823 -2.271539,-0.31997 -3.328795,-0.71574 -2.128127,-0.79666 -4.067742,-2.33562 -5.345087,-4.24104 -0.211914,-0.31609 -0.754713,-1.22779 -0.754713,-1.26759 0,-0.0187 -0.244501,-0.55552 -0.290084,-0.63726 -0.06174,-0.11067 -0.322478,-0.86489 -0.305046,-0.8823 0.0091,-0.01 0.06983,-0.0163 0.134936,-0.0158 0.06504,6.8e-4 0.467562,0.004 0.894414,0.007 l 0.776097,0.005 0.08317,0.20692 c 0.106868,0.26593 0.467396,0.96154 0.66121,1.27576 l 0.150562,0.24408 0.884683,3.5e-4 c 0.486575,1.7e-4 0.89354,-0.01 0.904368,-0.0194 0.01087,-0.0104 -0.0096,-0.11376 -0.04536,-0.22871 -0.07977,-0.2563 -0.314595,-1.24266 -0.329414,-1.38368 l -0.01082,-0.1026 0.863688,0.008 c 0.475027,0.005 0.874005,0.0165 0.886611,0.031 0.01264,0.0135 0.07305,0.22753 0.134339,0.47501 0.06127,0.24745 0.167125,0.61993 0.235215,0.82769 l 0.123799,0.37777 h 4.32377 4.32377 l 0.107871,-0.3239 c 0.05934,-0.17811 0.168272,-0.55868 0.242081,-0.84569 l 0.13421,-0.5218 0.771987,-0.0181 c 0.424594,-0.0102 0.822572,-0.0134 0.884397,-0.01 l 0.112408,0.0105 -0.0461,0.24097 c -0.06012,0.31442 -0.264009,1.13627 -0.32429,1.30712 -0.04064,0.11539 -0.03973,0.13656 0.0074,0.15456 0.0299,0.0112 0.437613,0.0206 0.906071,0.0204 l 0.851751,-3.5e-4 0.149432,-0.24259 c 0.192541,-0.3126 0.514019,-0.93085 0.645427,-1.24125 l 0.102838,-0.24291 0.774709,-0.005 c 0.426092,-0.002 0.83544,-0.009 0.909662,-0.0103 0.07424,-0.005 0.134945,0.004 0.134945,0.0154 0,0.037 -0.283398,0.81906 -0.321543,0.88774 -0.01956,0.035 -0.102363,0.20976 -0.18402,0.38788 -0.426022,0.9294 -1.188032,2.07115 -1.884969,2.82431 -1.623011,1.75395 -3.669396,2.92467 -5.976439,3.41899 -0.809971,0.17358 -2.222435,0.28325 -2.96893,0.23044 z m 1.365089,-1.81448 c 0.830215,-0.23221 1.532857,-0.75821 2.258102,-1.69034 0.254291,-0.32682 0.521233,-0.75302 0.496609,-0.79286 -0.02608,-0.0425 -6.853623,-0.045 -6.921109,-0.004 -0.0373,0.0231 -0.0015,0.10287 0.156588,0.34783 0.451932,0.70055 1.016717,1.29724 1.612813,1.70396 0.3394,0.23158 0.875622,0.44178 1.300969,0.51001 0.27431,0.0437 0.796811,0.01 1.096028,-0.0759 z m -5.567069,-1.33947 c -0.03816,-0.064 -0.108289,-0.18041 -0.155881,-0.25801 -0.04758,-0.0776 -0.175599,-0.31237 -0.28446,-0.5218 l -0.197929,-0.38076 -0.449837,-0.01 c -0.554735,-0.01 -0.577498,-0.004 -0.464227,0.11918 0.08273,0.0888 0.636309,0.54057 0.824098,0.67254 0.282342,0.19844 0.740046,0.49245 0.766619,0.49245 0.01706,0 -2.54e-4,-0.0523 -0.03838,-0.11696 z m 10.014918,-0.0976 c 0.441433,-0.29343 0.459299,-0.30638 0.826666,-0.59936 0.405173,-0.32317 0.515446,-0.43714 0.446228,-0.46123 -0.02778,-0.01 -0.252162,-0.0137 -0.498796,-0.0103 l -0.448418,0.01 -0.199547,0.37784 c -0.257084,0.48684 -0.431491,0.78651 -0.472484,0.81183 -0.03984,0.0251 -0.0431,0.0878 -0.0045,0.0878 0.01534,0 0.173308,-0.0966 0.350872,-0.21461 z m -14.82893,-6.15334 c -0.105739,-0.0432 -0.142388,-0.0978 -0.253017,-0.3796 -0.05437,-0.13855 -0.110452,-0.26811 -0.124558,-0.28791 -0.01412,-0.0194 -0.04603,-0.10075 -0.07099,-0.17991 -0.02493,-0.079 -0.0573,-0.16015 -0.07187,-0.17996 -0.01458,-0.0194 -0.06026,-0.12504 -0.101448,-0.23392 -0.04121,-0.10885 -0.12598,-0.31937 -0.188368,-0.46782 -0.251463,-0.59832 -0.549019,-1.32497 -0.620953,-1.51638 -0.06258,-0.16645 -0.06879,-0.21923 -0.03465,-0.29404 0.03468,-0.0761 0.07465,-0.0953 0.242406,-0.11629 0.275307,-0.0342 0.864214,-0.007 0.925999,0.0461 0.06077,0.0503 0.222095,0.46886 0.610286,1.58276 0.156286,0.44845 0.2165,0.57835 0.23808,0.51351 0.0099,-0.0296 0.08689,-0.21593 0.171131,-0.41386 0.135558,-0.31851 0.228348,-0.53179 0.532013,-1.2229 0.181998,-0.41423 0.217299,-0.46461 0.348678,-0.49783 0.194681,-0.0489 0.817224,-0.0147 0.879188,0.049 0.02837,0.0287 0.110098,0.19036 0.181695,0.3586 0.169311,0.39786 0.224634,0.52794 0.485197,1.141 0.119505,0.28118 0.217282,0.52812 0.217282,0.54879 0,0.0701 0.06693,0.038 0.09182,-0.043 0.03155,-0.10353 0.237485,-0.63984 0.629929,-1.64073 0.06473,-0.1651 0.139553,-0.32204 0.166247,-0.34872 0.07006,-0.07 0.324237,-0.0995 0.712458,-0.0823 0.354264,0.0158 0.486799,0.0726 0.486799,0.20861 0,0.0521 -0.221572,0.58139 -0.429619,1.0266 -0.06029,0.12906 -0.219374,0.49048 -0.601862,1.36753 -0.387996,0.88963 -0.445337,0.99911 -0.551948,1.05361 -0.132474,0.0674 -0.914041,0.0455 -0.987589,-0.0282 -0.05152,-0.052 -0.494365,-1.03096 -0.764648,-1.69096 -0.06889,-0.16826 -0.137969,-0.3192 -0.153501,-0.33542 -0.01556,-0.0163 -0.08526,0.10519 -0.154928,0.26989 -0.163891,0.38735 -0.39054,0.87571 -0.638359,1.37546 -0.155924,0.31443 -0.217022,0.40414 -0.287897,0.4227 -0.130237,0.0343 -0.796705,0.0311 -0.88293,-0.005 z m 7.72046,-0.0117 c -0.12233,-0.061 -0.173818,-0.16772 -0.647262,-1.33945 -0.119956,-0.29689 -0.249669,-0.61266 -0.288248,-0.70173 -0.276012,-0.63727 -0.539954,-1.32441 -0.539954,-1.40573 0,-0.17384 0.07081,-0.1957 0.634095,-0.1957 0.415951,0 0.525635,0.0105 0.570424,0.0553 0.03049,0.0308 0.219886,0.52102 0.420874,1.09003 0.200981,0.56901 0.375813,1.0218 0.388523,1.00613 0.01268,-0.016 0.05774,-0.10937 0.1001,-0.20835 0.07216,-0.16869 0.262895,-0.60921 0.405076,-0.93567 0.03446,-0.0789 0.121454,-0.27553 0.193282,-0.43635 0.07187,-0.16085 0.130676,-0.30658 0.130778,-0.3239 1.08e-4,-0.0171 0.03798,-0.0788 0.0843,-0.13656 0.07879,-0.0985 0.103632,-0.10615 0.39357,-0.12136 0.170196,-0.01 0.384693,-0.007 0.476652,0.01 0.163146,0.0248 0.169643,0.0307 0.268544,0.2473 0.14378,0.31529 0.315579,0.71437 0.5798,1.34684 0.126092,0.30183 0.237576,0.54846 0.247735,0.54798 0.01014,-3.5e-4 0.105345,-0.23122 0.211517,-0.51282 0.106171,-0.28158 0.240581,-0.63344 0.298693,-0.78187 0.0581,-0.14847 0.144146,-0.37344 0.191201,-0.49993 0.12582,-0.33828 0.134184,-0.34321 0.605371,-0.35817 0.483189,-0.0155 0.698432,0.0298 0.729349,0.153 0.01473,0.0582 -0.0624,0.27311 -0.255075,0.70944 -0.151887,0.34398 -0.362015,0.81975 -0.466949,1.05725 -0.104928,0.23752 -0.289602,0.65857 -0.410381,0.93567 -0.299279,0.68662 -0.332078,0.74697 -0.435408,0.80128 -0.119073,0.0626 -0.89978,0.0468 -0.979913,-0.0192 -0.03042,-0.0252 -0.1317,-0.21959 -0.225104,-0.43185 -0.0934,-0.21229 -0.199504,-0.45073 -0.235779,-0.52991 -0.125996,-0.275 -0.255577,-0.5771 -0.347292,-0.80971 -0.05074,-0.12865 -0.10388,-0.24677 -0.118098,-0.26248 -0.01418,-0.0161 -0.07059,0.0731 -0.125217,0.19793 -0.05461,0.12457 -0.145548,0.32366 -0.202011,0.44241 -0.05641,0.11877 -0.222193,0.47504 -0.368266,0.79172 -0.191808,0.41586 -0.289694,0.58814 -0.352397,0.62023 -0.11653,0.0597 -0.812929,0.0591 -0.932519,-3.4e-4 z m 7.748933,0.0211 c -0.09472,-0.0187 -0.149745,-0.10041 -0.273095,-0.4068 -0.05184,-0.12867 -0.152641,-0.37158 -0.224117,-0.53982 -0.07148,-0.16823 -0.201348,-0.48402 -0.288623,-0.70174 -0.08727,-0.21773 -0.216817,-0.53351 -0.287893,-0.70175 -0.07105,-0.16823 -0.202327,-0.48931 -0.291674,-0.71349 -0.150575,-0.3778 -0.158519,-0.41361 -0.108575,-0.48983 0.02961,-0.0455 0.10558,-0.0926 0.168783,-0.10522 0.178918,-0.0358 0.757012,-0.0266 0.904429,0.014 0.152315,0.0426 0.10973,-0.0508 0.576067,1.25825 0.158655,0.44534 0.300324,0.83137 0.314823,0.85785 0.01742,0.0314 0.05376,-0.0166 0.107248,-0.14393 0.0445,-0.10565 0.126955,-0.29738 0.183273,-0.42602 0.05634,-0.12866 0.162256,-0.37157 0.235432,-0.53981 0.07317,-0.16824 0.161368,-0.37067 0.195957,-0.44983 0.03465,-0.0789 0.09465,-0.21683 0.133455,-0.30591 0.03883,-0.0891 0.09916,-0.18555 0.134115,-0.21441 0.08201,-0.0674 0.667448,-0.0959 0.868312,-0.0417 l 0.146446,0.0399 0.273838,0.63912 c 0.284227,0.66339 0.540342,1.27691 0.578522,1.38587 0.03554,0.10127 0.08468,0.0729 0.125534,-0.0722 0.0209,-0.0742 0.095,-0.28069 0.16467,-0.45881 0.0697,-0.17815 0.223826,-0.57356 0.342546,-0.8787 0.118719,-0.30512 0.240922,-0.57986 0.271557,-0.6105 0.04056,-0.0402 0.153631,-0.0597 0.415041,-0.0699 0.485492,-0.0193 0.670247,0.0106 0.743525,0.12286 0.0546,0.0833 0.05223,0.10121 -0.04091,0.31255 -0.249076,0.56539 -0.502141,1.13803 -0.568244,1.28585 -0.104038,0.23266 -0.437945,0.99852 -0.627588,1.43946 -0.232168,0.53982 -0.205728,0.52184 -0.765739,0.52184 -0.554378,0 -0.543402,0.01 -0.738813,-0.44985 -0.592959,-1.38527 -0.688353,-1.59741 -0.722894,-1.60747 -0.01754,-0.008 -0.23384,0.4353 -0.480708,0.9787 -0.52612,1.15812 -0.470667,1.09948 -1.03205,1.09171 -0.194943,-0.004 -0.38964,-0.0117 -0.432673,-0.0198 z m -15.765037,-5.328 c -0.400804,-0.008 -0.728737,-0.0159 -0.728737,-0.0221 0,-0.0289 0.290373,-0.82077 0.321694,-0.87695 0.01963,-0.035 0.09322,-0.19357 0.163518,-0.35192 0.147039,-0.33117 0.126863,-0.29179 0.378026,-0.73773 1.541891,-2.73756 4.111157,-4.70676 7.107888,-5.44782 0.980089,-0.24243 1.659376,-0.32316 2.717013,-0.32316 1.057636,0 1.736931,0.0809 2.71702,0.32316 1.870408,0.46252 3.607291,1.41612 5.016768,2.75438 1.121964,1.06529 1.930078,2.23294 2.64859,3.82704 0.07099,0.15753 0.308304,0.81937 0.297218,0.82896 -0.01801,0.016 -0.911572,0.0313 -1.361336,0.0242 l -0.452212,-0.01 -0.08317,-0.20694 c -0.101724,-0.25313 -0.438495,-0.90638 -0.649316,-1.25955 l -0.155763,-0.26084 h -0.855095 c -0.470305,0 -0.878712,0.01 -0.907575,0.0198 -0.04522,0.0171 -0.04346,0.049 0.01242,0.2287 0.05192,0.16665 0.246129,0.96125 0.341681,1.39756 0.02132,0.0974 0.111973,0.0879 -0.895367,0.0939 -0.510984,0.005 -0.832547,-0.01 -0.85027,-0.0311 -0.01564,-0.0195 -0.07879,-0.23845 -0.140278,-0.48593 -0.06146,-0.24744 -0.167481,-0.61992 -0.235569,-0.82768 l -0.123793,-0.37777 h -4.323997 -4.323969 l -0.123801,0.37776 c -0.06806,0.20777 -0.173939,0.58024 -0.235217,0.82769 -0.06127,0.24748 -0.123226,0.46276 -0.137663,0.47846 -0.02418,0.026 -1.724109,0.0427 -1.749883,0.0165 -0.01574,-0.0161 0.09928,-0.53206 0.238559,-1.0707 0.06397,-0.24741 0.118092,-0.49031 0.120267,-0.53979 l 0.0044,-0.0901 -0.881681,-0.01 -0.88168,-0.01 -0.149111,0.24308 c -0.21521,0.35083 -0.495093,0.88499 -0.627052,1.19676 -0.06286,0.14844 -0.132529,0.28179 -0.154869,0.29633 -0.02235,0.0144 -0.105396,0.0226 -0.184566,0.0192 -0.07918,-0.006 -0.471881,-0.0126 -0.872685,-0.0183 z m 4.667942,-3.82435 c 0.236746,-0.44964 0.389576,-0.71369 0.463078,-0.80026 0.10806,-0.12728 0.0022,-0.1039 -0.254483,0.0561 -0.551307,0.34356 -1.416116,1.04093 -1.374486,1.10833 0.01223,0.0192 0.221423,0.0302 0.493894,0.0245 l 0.472694,-0.0104 z m 8.7822,0.36019 c 0,-0.0195 -0.0907,-0.17689 -0.201565,-0.34877 -0.578093,-0.89614 -1.328304,-1.60714 -2.045118,-1.93834 -0.454858,-0.21015 -0.776089,-0.28293 -1.244057,-0.28179 -0.468893,0.002 -0.797993,0.076 -1.244057,0.28179 -0.701764,0.32425 -1.443841,1.02284 -2.017691,1.89954 -0.125941,0.19241 -0.228988,0.35728 -0.228988,0.36634 0,0.0428 0.37859,0.0482 3.571702,0.0523 2.273012,0.005 3.409774,-0.01 3.409774,-0.0312 z m 2.964606,0.01 c 0.03259,-0.0523 -0.383816,-0.41278 -0.99233,-0.85811 -0.228028,-0.16686 -0.640957,-0.42023 -0.657674,-0.4035 -0.0077,0.01 0.05914,0.13561 0.149146,0.28369 0.09,0.14803 0.242716,0.42568 0.339374,0.61695 0.09666,0.19133 0.196085,0.35524 0.220941,0.36426 0.08513,0.0312 0.921196,0.0283 0.940543,-0.005 z"
         style="fill:#000000;stroke-width:0.03598702" />
      <flowRoot
         transform="matrix(0.52916666,0,0,0.52916666,-39.515366,-393.37015)"
         style="font-style:normal;font-weight:normal;font-size:8.80000019px;line-height:1.25;font-family:sans-serif;text-align:start;letter-spacing:0px;word-spacing:0px;text-anchor:start;fill:#000000;fill-opacity:1;stroke:none"
         id="flowRoot927"
         xml:space="preserve"><flowRegion
           id="flowRegion929"><rect
             y="1155.3768"
             x="108.57143"
             height="180"
             width="331.42856"
             id="rect931" /></flowRegion><flowPara
           id="flowPara933">real trash images from the web</flowPara></flowRoot>    </g>
    <flowRoot
       xml:space="preserve"
       id="flowRoot935"
       style="font-style:normal;font-weight:normal;font-size:8.80000019px;line-height:1.25;font-family:sans-serif;text-align:start;letter-spacing:0px;word-spacing:0px;text-anchor:start;fill:#ffffff;fill-opacity:1;stroke:none"
       transform="matrix(0.52916666,0,0,0.52916666,-140.79184,-397.23334)"
       inkscape:export-xdpi="124.26285"
       inkscape:export-ydpi="124.26285"><flowRegion
         id="flowRegion937"
         style="fill:#ffffff;fill-opacity:1"><rect
           id="rect939"
           width="102.85714"
           height="94.285713"
           x="501.42856"
           y="1212.5197"
           style="fill:#ffffff;fill-opacity:1" /></flowRegion><flowPara
         id="flowPara941">ocean virtual environment</flowPara></flowRoot>    <g
       id="g967"
       inkscape:export-xdpi="124.26285"
       inkscape:export-ydpi="124.26285">
      <image
         sodipodi:absref="/home/jake/code/NASA_LIFO/lifo-spaceapp/presentation/files/sea1.png"
         xlink:href="sea1.png"
         y="246.60635"
         x="23.195904"
         id="image959"
         style="image-rendering:optimizeQuality"
         preserveAspectRatio="none"
         height="47.038498"
         width="68.133934" />
      <flowRoot
         transform="matrix(0.52916666,0,0,0.52916666,-46.762239,-356.91357)"
         style="font-style:normal;font-weight:normal;font-size:8.80000019px;line-height:1.25;font-family:sans-serif;text-align:start;letter-spacing:0px;word-spacing:0px;text-anchor:start;fill:#ffffff;fill-opacity:1;stroke:none"
         id="flowRoot943"
         xml:space="preserve"><flowRegion
           style="fill:#ffffff;fill-opacity:1"
           id="flowRegion945"><rect
             style="fill:#ffffff;fill-opacity:1"
             y="1215.3768"
             x="142.85715"
             height="58.57143"
             width="178.57143"
             id="rect947" /></flowRegion><flowPara
           id="flowPara949">recycling them by the drone</flowPara></flowRoot>    </g>
    <path
       style="fill:none;stroke:#000000;stroke-width:2;stroke-linecap:butt;stroke-linejoin:miter;stroke-miterlimit:4;stroke-dasharray:none;stroke-opacity:1;marker-end:url(#Arrow2Send)"
       d="m 58.353061,234.87058 v 8.27461"
       id="path977"
       inkscape:connector-curvature="0"
       sodipodi:nodetypes="cc"
       inkscape:export-xdpi="124.26285"
       inkscape:export-ydpi="124.26285" />
    <path
       sodipodi:nodetypes="cc"
       inkscape:connector-curvature="0"
       id="path1331"
       d="m 114.9739,242.27892 -17.462502,6.15794"
       style="fill:none;stroke:#000000;stroke-width:2;stroke-linecap:butt;stroke-linejoin:miter;stroke-miterlimit:4;stroke-dasharray:none;stroke-opacity:1;marker-end:url(#marker1335)"
       inkscape:export-xdpi="124.26285"
       inkscape:export-ydpi="124.26285" />
  </g>
</svg>
